G75*
%MOIN*%
%OFA0B0*%
%FSLAX24Y24*%
%IPPOS*%
%LPD*%
%AMOC8*
5,1,8,0,0,1.08239X$1,22.5*
%
%ADD10OC8,0.0600*%
%ADD11R,0.0600X0.0600*%
%ADD12C,0.0100*%
%ADD13C,0.0320*%
%ADD14C,0.0200*%
%ADD15C,0.0160*%
%ADD16C,0.0450*%
%ADD17C,0.0080*%
%ADD18C,0.0270*%
%ADD19C,0.0317*%
D10*
X021497Y005465D03*
X022497Y005465D03*
X023497Y005465D03*
X024497Y005465D03*
X025497Y005465D03*
X026497Y005465D03*
X027497Y005465D03*
X028497Y005465D03*
X029497Y005465D03*
X033855Y009233D03*
X034855Y009233D03*
X034855Y010233D03*
X033855Y010233D03*
X033855Y011233D03*
X034855Y011233D03*
X034855Y012233D03*
X033855Y012233D03*
X033855Y013233D03*
X033855Y014233D03*
X034855Y014233D03*
X034855Y013233D03*
X034855Y015233D03*
X033855Y015233D03*
X033855Y016233D03*
X034855Y016233D03*
X034855Y017233D03*
X033855Y017233D03*
X034855Y018233D03*
X029343Y022000D03*
X028343Y022000D03*
X025438Y022000D03*
X024438Y022000D03*
X023438Y022000D03*
X022438Y022000D03*
X021438Y022000D03*
X020438Y022000D03*
X014308Y022000D03*
X013308Y022000D03*
X012308Y022000D03*
X011308Y022000D03*
X010308Y022000D03*
D11*
X033855Y018233D03*
D12*
X007713Y006782D02*
X007672Y006813D01*
X007660Y006811D01*
X007599Y006844D01*
X007594Y006855D01*
X007546Y006873D01*
X007501Y006898D01*
X007489Y006894D01*
X007425Y006918D01*
X007418Y006928D01*
X007368Y006939D01*
X007320Y006957D01*
X007309Y006952D01*
X007242Y006967D01*
X007234Y006976D01*
X007182Y006980D01*
X007132Y006991D01*
X007122Y006984D01*
X007059Y006989D01*
X007055Y006993D01*
X006998Y006993D01*
X006942Y006997D01*
X006937Y006993D01*
X005568Y006993D01*
X005568Y020472D01*
X006937Y020472D01*
X006942Y020468D01*
X006998Y020472D01*
X007055Y020472D01*
X007059Y020477D01*
X007122Y020481D01*
X007132Y020475D01*
X007182Y020486D01*
X007234Y020489D01*
X007242Y020499D01*
X007309Y020513D01*
X007320Y020508D01*
X007368Y020526D01*
X007418Y020537D01*
X007425Y020547D01*
X007489Y020571D01*
X007501Y020568D01*
X007546Y020592D01*
X007594Y020610D01*
X007599Y020621D01*
X007660Y020654D01*
X007672Y020653D01*
X007713Y020683D01*
X007758Y020708D01*
X007761Y020720D01*
X007816Y020761D01*
X007829Y020761D01*
X007865Y020797D01*
X007906Y020828D01*
X007908Y020840D01*
X007956Y020889D01*
X007968Y020890D01*
X007999Y020932D01*
X008036Y020968D01*
X008036Y020980D01*
X008077Y021035D01*
X008088Y021039D01*
X008113Y021084D01*
X008144Y021125D01*
X008142Y021137D01*
X008175Y021197D01*
X008186Y021202D01*
X008204Y021250D01*
X008229Y021296D01*
X008225Y021307D01*
X008249Y021372D01*
X008260Y021378D01*
X008270Y021428D01*
X008288Y021477D01*
X008283Y021488D01*
X008298Y021555D01*
X008307Y021563D01*
X008311Y021614D01*
X008322Y021664D01*
X008315Y021675D01*
X008320Y021737D01*
X008324Y021741D01*
X008324Y021798D01*
X008328Y021855D01*
X008324Y021859D01*
X008324Y023228D01*
X010402Y023228D01*
X010489Y023316D01*
X010489Y025212D01*
X010402Y025300D01*
X007827Y025300D01*
X007770Y025306D01*
X007666Y025349D01*
X007586Y025429D01*
X007542Y025534D01*
X007537Y025590D01*
X007537Y026110D01*
X009782Y032845D01*
X009801Y032904D01*
X009822Y032950D01*
X009890Y033025D01*
X009982Y033066D01*
X010033Y033071D01*
X011641Y033071D01*
X011652Y033070D01*
X011672Y033060D01*
X011684Y033042D01*
X011688Y033020D01*
X011686Y033009D01*
X010602Y029759D01*
X010583Y029740D01*
X010583Y029702D01*
X010571Y029666D01*
X010583Y029642D01*
X010583Y029615D01*
X010610Y029589D01*
X010627Y029555D01*
X010652Y029546D01*
X010671Y029528D01*
X010709Y029528D01*
X010745Y029516D01*
X010768Y029528D01*
X012226Y029528D01*
X012260Y029523D01*
X012317Y029490D01*
X012350Y029432D01*
X012355Y029399D01*
X012355Y027253D01*
X012443Y027165D01*
X013071Y027165D01*
X013107Y027153D01*
X013131Y027165D01*
X013157Y027165D01*
X013184Y027192D01*
X013218Y027209D01*
X013226Y027234D01*
X013245Y027253D01*
X013245Y027291D01*
X015123Y032924D01*
X015141Y032979D01*
X015143Y032983D01*
X015154Y033007D01*
X015189Y033047D01*
X015238Y033068D01*
X015264Y033071D01*
X016843Y033071D01*
X016873Y033067D01*
X016927Y033040D01*
X016962Y032991D01*
X016971Y032932D01*
X016965Y032902D01*
X015917Y029759D01*
X015898Y029740D01*
X015898Y029702D01*
X015886Y029666D01*
X015898Y029642D01*
X015898Y029615D01*
X015925Y029589D01*
X015942Y029555D01*
X015967Y029546D01*
X015986Y029528D01*
X016024Y029528D01*
X016060Y029516D01*
X016083Y029528D01*
X017623Y029528D01*
X017635Y029526D01*
X017656Y029514D01*
X017668Y029493D01*
X017670Y029481D01*
X017670Y027253D01*
X017758Y027165D01*
X018472Y027165D01*
X018560Y027253D01*
X018560Y032289D01*
X018567Y032298D01*
X018560Y032350D01*
X018560Y032403D01*
X018557Y032406D01*
X018554Y032459D01*
X018592Y032655D01*
X031461Y032655D01*
X031423Y032754D02*
X018646Y032754D01*
X018688Y032830D02*
X018834Y032967D01*
X019014Y033052D01*
X019107Y033071D01*
X031101Y033071D01*
X031159Y033065D01*
X031265Y033020D01*
X031345Y032937D01*
X031372Y032886D01*
X031380Y032865D01*
X031394Y032828D01*
X031394Y032828D01*
X032630Y029649D01*
X032630Y029615D01*
X032652Y029594D01*
X032663Y029565D01*
X032694Y029552D01*
X032718Y029528D01*
X032749Y029528D01*
X032777Y029515D01*
X032808Y029528D01*
X032842Y029528D01*
X032864Y029549D01*
X032893Y029560D01*
X032906Y029591D01*
X032930Y029615D01*
X032930Y029646D01*
X032943Y029674D01*
X032930Y029706D01*
X032930Y032664D01*
X032938Y032743D01*
X032999Y032890D01*
X033111Y033002D01*
X033258Y033063D01*
X033337Y033071D01*
X034505Y033071D01*
X034562Y033065D01*
X034667Y033022D01*
X034747Y032942D01*
X034790Y032837D01*
X034796Y032781D01*
X034796Y023528D01*
X034096Y023528D01*
X034008Y023440D01*
X034008Y021859D01*
X034004Y021855D01*
X034008Y021798D01*
X034008Y021741D01*
X034013Y021737D01*
X034017Y021675D01*
X034011Y021664D01*
X034021Y021614D01*
X034025Y021563D01*
X034034Y021555D01*
X034049Y021488D01*
X034044Y021477D01*
X034062Y021428D01*
X034073Y021378D01*
X034083Y021372D01*
X034107Y021307D01*
X034104Y021296D01*
X034128Y021250D01*
X034146Y021202D01*
X034157Y021197D01*
X034190Y021137D01*
X034188Y021125D01*
X034219Y021084D01*
X034244Y021039D01*
X034256Y021035D01*
X034297Y020980D01*
X034297Y020968D01*
X034333Y020932D01*
X034364Y020890D01*
X034376Y020889D01*
X034425Y020840D01*
X034426Y020828D01*
X034467Y020797D01*
X034504Y020761D01*
X034516Y020761D01*
X034571Y020720D01*
X034574Y020708D01*
X034620Y020683D01*
X034661Y020653D01*
X034673Y020654D01*
X034733Y020621D01*
X034738Y020610D01*
X034786Y020592D01*
X034831Y020568D01*
X034843Y020571D01*
X034907Y020547D01*
X034914Y020537D01*
X034964Y020526D01*
X035012Y020508D01*
X035024Y020513D01*
X035091Y020499D01*
X035099Y020489D01*
X035150Y020486D01*
X035200Y020475D01*
X035210Y020481D01*
X035273Y020477D01*
X035277Y020472D01*
X035334Y020472D01*
X035391Y020468D01*
X035395Y020472D01*
X036764Y020472D01*
X036764Y006993D01*
X035395Y006993D01*
X035391Y006997D01*
X035334Y006993D01*
X035277Y006993D01*
X035273Y006989D01*
X035210Y006984D01*
X035200Y006991D01*
X035150Y006980D01*
X035099Y006976D01*
X035091Y006967D01*
X035024Y006952D01*
X035012Y006957D01*
X034964Y006939D01*
X034914Y006928D01*
X034907Y006918D01*
X034843Y006894D01*
X034831Y006898D01*
X034786Y006873D01*
X034738Y006855D01*
X034733Y006844D01*
X034673Y006811D01*
X034661Y006813D01*
X034620Y006782D01*
X034574Y006757D01*
X034571Y006746D01*
X034516Y006704D01*
X034504Y006704D01*
X034467Y006668D01*
X034426Y006637D01*
X034425Y006625D01*
X034376Y006577D01*
X034364Y006575D01*
X034333Y006534D01*
X034297Y006497D01*
X034297Y006485D01*
X034256Y006430D01*
X034244Y006427D01*
X034219Y006382D01*
X034188Y006341D01*
X034190Y006328D01*
X034157Y006268D01*
X034146Y006263D01*
X034128Y006215D01*
X034104Y006170D01*
X034107Y006158D01*
X034083Y006094D01*
X034073Y006087D01*
X034062Y006037D01*
X034044Y005989D01*
X034049Y005978D01*
X034034Y005911D01*
X034025Y005903D01*
X034021Y005851D01*
X034011Y005801D01*
X034017Y005791D01*
X034013Y005728D01*
X034008Y005724D01*
X034008Y005667D01*
X034004Y005611D01*
X034008Y005606D01*
X034008Y004237D01*
X030947Y004237D01*
X030859Y004149D01*
X030859Y004087D01*
X030844Y003757D01*
X030730Y003107D01*
X030504Y002487D01*
X030174Y001915D01*
X029749Y001409D01*
X029244Y000985D01*
X028672Y000655D01*
X028052Y000429D01*
X027402Y000314D01*
X027072Y000300D01*
X015261Y000300D01*
X014931Y000314D01*
X014280Y000429D01*
X013660Y000655D01*
X013088Y000985D01*
X012583Y001409D01*
X012158Y001915D01*
X011828Y002487D01*
X011603Y003107D01*
X011488Y003757D01*
X011474Y004087D01*
X011474Y004149D01*
X011386Y004237D01*
X008324Y004237D01*
X008324Y005606D01*
X008328Y005611D01*
X008324Y005667D01*
X008324Y005724D01*
X008320Y005728D01*
X008315Y005791D01*
X008322Y005801D01*
X008311Y005851D01*
X008307Y005903D01*
X008298Y005911D01*
X008283Y005978D01*
X008288Y005989D01*
X008270Y006037D01*
X008260Y006087D01*
X008249Y006094D01*
X008225Y006158D01*
X008229Y006170D01*
X008204Y006215D01*
X008186Y006263D01*
X008175Y006268D01*
X008142Y006328D01*
X008144Y006341D01*
X008113Y006382D01*
X008088Y006427D01*
X008077Y006430D01*
X008036Y006485D01*
X008036Y006497D01*
X007999Y006534D01*
X007968Y006575D01*
X007956Y006577D01*
X007908Y006625D01*
X007906Y006637D01*
X007865Y006668D01*
X007829Y006704D01*
X007816Y006704D01*
X007761Y006746D01*
X007758Y006757D01*
X007713Y006782D01*
X007760Y006750D02*
X014910Y006750D01*
X015008Y006848D02*
X007597Y006848D01*
X007349Y006947D02*
X015107Y006947D01*
X015205Y007045D02*
X005568Y007045D01*
X005568Y007144D02*
X015304Y007144D01*
X015402Y007242D02*
X005568Y007242D01*
X005568Y007341D02*
X015501Y007341D01*
X015599Y007439D02*
X005568Y007439D01*
X005568Y007538D02*
X015698Y007538D01*
X015796Y007636D02*
X005568Y007636D01*
X005568Y007735D02*
X015895Y007735D01*
X015993Y007833D02*
X005568Y007833D01*
X005568Y007932D02*
X021260Y007932D01*
X021189Y007860D02*
X016020Y007860D01*
X014403Y006243D01*
X014356Y006243D01*
X014243Y006195D01*
X014155Y006108D01*
X014108Y005994D01*
X014108Y005871D01*
X014155Y005757D01*
X014243Y005670D01*
X014356Y005623D01*
X014480Y005623D01*
X014594Y005670D01*
X014681Y005757D01*
X014728Y005871D01*
X014728Y005917D01*
X016211Y007400D01*
X021380Y007400D01*
X021514Y007535D01*
X026002Y012023D01*
X026048Y012023D01*
X026162Y012070D01*
X026249Y012157D01*
X026297Y012271D01*
X026297Y012394D01*
X026249Y012508D01*
X026217Y012541D01*
X026217Y013137D01*
X027688Y014609D01*
X027823Y014744D01*
X027823Y017195D01*
X027827Y017199D01*
X027874Y017313D01*
X027874Y017436D01*
X027827Y017550D01*
X027739Y017637D01*
X027625Y017684D01*
X027502Y017684D01*
X027388Y017637D01*
X027301Y017550D01*
X027254Y017436D01*
X027254Y017334D01*
X025865Y018723D01*
X021908Y018723D01*
X021797Y018611D01*
X017908Y014723D01*
X017508Y014723D01*
X017397Y014611D01*
X016897Y014111D01*
X016897Y013666D01*
X016147Y012916D01*
X016147Y012519D01*
X016074Y012446D01*
X016027Y012332D01*
X016027Y012209D01*
X016062Y012123D01*
X015310Y012123D01*
X015300Y012133D01*
X015186Y012180D01*
X015062Y012180D01*
X014949Y012133D01*
X014861Y012046D01*
X014814Y011932D01*
X014814Y011809D01*
X014861Y011695D01*
X014949Y011607D01*
X015062Y011560D01*
X015186Y011560D01*
X015234Y011580D01*
X015214Y011532D01*
X015214Y011408D01*
X015261Y011295D01*
X015349Y011207D01*
X015462Y011160D01*
X015586Y011160D01*
X015700Y011207D01*
X015773Y011280D01*
X015965Y011280D01*
X015828Y011143D01*
X015725Y011143D01*
X015611Y011095D01*
X015524Y011008D01*
X015477Y010894D01*
X015477Y010771D01*
X015524Y010657D01*
X015611Y010570D01*
X015725Y010523D01*
X015848Y010523D01*
X015962Y010570D01*
X015987Y010594D01*
X016011Y010570D01*
X016125Y010523D01*
X016248Y010523D01*
X016362Y010570D01*
X016449Y010657D01*
X016497Y010771D01*
X016497Y010874D01*
X016765Y011143D01*
X016858Y011143D01*
X016824Y011108D01*
X016777Y010994D01*
X016777Y010871D01*
X016824Y010757D01*
X016911Y010670D01*
X017025Y010623D01*
X017128Y010623D01*
X017697Y010054D01*
X017808Y009943D01*
X022765Y009943D01*
X025465Y012643D01*
X025577Y012754D01*
X025577Y014754D01*
X025745Y014923D01*
X025848Y014923D01*
X025962Y014970D01*
X026049Y015057D01*
X026097Y015171D01*
X026097Y015294D01*
X026049Y015408D01*
X025962Y015495D01*
X025848Y015543D01*
X025725Y015543D01*
X025611Y015495D01*
X025524Y015408D01*
X025477Y015294D01*
X025477Y015191D01*
X025308Y015023D01*
X025308Y015023D01*
X025197Y014911D01*
X025197Y012911D01*
X022608Y010323D01*
X017965Y010323D01*
X017397Y010891D01*
X017397Y010994D01*
X017349Y011108D01*
X017315Y011143D01*
X018158Y011143D01*
X018124Y011108D01*
X018095Y011039D01*
X018086Y011043D01*
X017962Y011043D01*
X017848Y010995D01*
X017761Y010908D01*
X017714Y010794D01*
X017714Y010671D01*
X017761Y010557D01*
X017848Y010470D01*
X017962Y010423D01*
X018086Y010423D01*
X018134Y010443D01*
X018665Y010443D01*
X018777Y010554D01*
X018965Y010743D01*
X022865Y010743D01*
X024565Y012443D01*
X024677Y012554D01*
X024677Y014754D01*
X024945Y015023D01*
X025048Y015023D01*
X025162Y015070D01*
X025249Y015157D01*
X025297Y015271D01*
X025297Y015394D01*
X025249Y015508D01*
X025162Y015595D01*
X025048Y015643D01*
X024925Y015643D01*
X024811Y015595D01*
X024724Y015508D01*
X024677Y015394D01*
X024677Y015291D01*
X024462Y015077D01*
X024449Y015108D01*
X024362Y015195D01*
X024248Y015243D01*
X024125Y015243D01*
X024011Y015195D01*
X023924Y015108D01*
X023877Y014994D01*
X023877Y014943D01*
X023845Y014943D01*
X022698Y016090D01*
X021612Y016090D01*
X022565Y017043D01*
X022735Y017043D01*
X022808Y016970D01*
X022922Y016923D01*
X023045Y016923D01*
X023159Y016970D01*
X023246Y017057D01*
X023289Y017161D01*
X023577Y016874D01*
X023577Y016771D01*
X023624Y016657D01*
X023711Y016570D01*
X023825Y016523D01*
X023948Y016523D01*
X024062Y016570D01*
X024149Y016657D01*
X024197Y016771D01*
X024197Y016894D01*
X024149Y017008D01*
X024062Y017095D01*
X023948Y017143D01*
X023845Y017143D01*
X023445Y017543D01*
X025108Y017543D01*
X025677Y016974D01*
X025677Y016871D01*
X025724Y016757D01*
X025811Y016670D01*
X025925Y016623D01*
X026048Y016623D01*
X026162Y016670D01*
X026187Y016694D01*
X026211Y016670D01*
X026325Y016623D01*
X026388Y016623D01*
X026377Y016594D01*
X026377Y016471D01*
X026424Y016357D01*
X026511Y016270D01*
X026625Y016223D01*
X026677Y016223D01*
X026677Y016171D01*
X026724Y016057D01*
X026811Y015970D01*
X026925Y015923D01*
X027048Y015923D01*
X027162Y015970D01*
X027249Y016057D01*
X027297Y016171D01*
X027297Y016294D01*
X027249Y016408D01*
X027235Y016423D01*
X027348Y016423D01*
X027363Y016429D01*
X027363Y014934D01*
X025891Y013463D01*
X025757Y013328D01*
X025757Y012541D01*
X025724Y012508D01*
X025677Y012394D01*
X025677Y012348D01*
X021189Y007860D01*
X021359Y008030D02*
X005568Y008030D01*
X005568Y008129D02*
X021457Y008129D01*
X021556Y008227D02*
X005568Y008227D01*
X005568Y008326D02*
X009114Y008326D01*
X009143Y008297D02*
X009281Y008240D01*
X009430Y008240D01*
X009568Y008297D01*
X009673Y008402D01*
X009730Y008540D01*
X009730Y008689D01*
X009673Y008827D01*
X009568Y008932D01*
X009430Y008990D01*
X009281Y008990D01*
X009143Y008932D01*
X009075Y008865D01*
X008868Y008865D01*
X006456Y011277D01*
X006456Y016188D01*
X007450Y017183D01*
X009206Y017183D01*
X009274Y017115D01*
X009412Y017058D01*
X009561Y017058D01*
X009699Y017115D01*
X009805Y017220D01*
X009862Y017358D01*
X009862Y017507D01*
X009805Y017645D01*
X009699Y017751D01*
X009561Y017808D01*
X009412Y017808D01*
X009274Y017751D01*
X009206Y017683D01*
X007297Y017683D01*
X007205Y017645D01*
X007135Y017574D01*
X005994Y016433D01*
X005956Y016341D01*
X005956Y011124D01*
X005994Y011032D01*
X008553Y008473D01*
X008623Y008403D01*
X008715Y008365D01*
X009075Y008365D01*
X009143Y008297D01*
X009596Y008326D02*
X021654Y008326D01*
X021753Y008424D02*
X009682Y008424D01*
X009723Y008523D02*
X021851Y008523D01*
X021950Y008621D02*
X009730Y008621D01*
X009718Y008720D02*
X022048Y008720D01*
X022147Y008818D02*
X009677Y008818D01*
X009583Y008917D02*
X022245Y008917D01*
X022344Y009015D02*
X008718Y009015D01*
X008816Y008917D02*
X009127Y008917D01*
X008619Y009114D02*
X022442Y009114D01*
X022541Y009212D02*
X008521Y009212D01*
X008422Y009311D02*
X022639Y009311D01*
X022738Y009409D02*
X008324Y009409D01*
X008225Y009508D02*
X022836Y009508D01*
X022935Y009606D02*
X008127Y009606D01*
X008028Y009705D02*
X023033Y009705D01*
X023132Y009803D02*
X007930Y009803D01*
X007831Y009902D02*
X023230Y009902D01*
X023329Y010000D02*
X022823Y010000D01*
X022921Y010099D02*
X023427Y010099D01*
X023526Y010197D02*
X023020Y010197D01*
X023118Y010296D02*
X023624Y010296D01*
X023723Y010394D02*
X023217Y010394D01*
X023315Y010493D02*
X023821Y010493D01*
X023920Y010591D02*
X023414Y010591D01*
X023512Y010690D02*
X024018Y010690D01*
X024117Y010788D02*
X023611Y010788D01*
X023709Y010887D02*
X024215Y010887D01*
X024314Y010985D02*
X023808Y010985D01*
X023906Y011084D02*
X024412Y011084D01*
X024511Y011182D02*
X024005Y011182D01*
X024103Y011281D02*
X024609Y011281D01*
X024708Y011379D02*
X024202Y011379D01*
X024300Y011478D02*
X024806Y011478D01*
X024905Y011576D02*
X024399Y011576D01*
X024497Y011675D02*
X025003Y011675D01*
X025102Y011773D02*
X024596Y011773D01*
X024694Y011872D02*
X025200Y011872D01*
X025299Y011970D02*
X024793Y011970D01*
X024891Y012069D02*
X025397Y012069D01*
X025496Y012167D02*
X024990Y012167D01*
X025088Y012266D02*
X025594Y012266D01*
X025677Y012364D02*
X025187Y012364D01*
X025285Y012463D02*
X025705Y012463D01*
X025757Y012561D02*
X025384Y012561D01*
X025482Y012660D02*
X025757Y012660D01*
X025757Y012758D02*
X025577Y012758D01*
X025577Y012857D02*
X025757Y012857D01*
X025757Y012955D02*
X025577Y012955D01*
X025577Y013054D02*
X025757Y013054D01*
X025757Y013152D02*
X025577Y013152D01*
X025577Y013251D02*
X025757Y013251D01*
X025778Y013349D02*
X025577Y013349D01*
X025577Y013448D02*
X025876Y013448D01*
X025975Y013546D02*
X025577Y013546D01*
X025577Y013645D02*
X026073Y013645D01*
X026172Y013743D02*
X025577Y013743D01*
X025577Y013842D02*
X026270Y013842D01*
X026369Y013940D02*
X025577Y013940D01*
X025577Y014039D02*
X026467Y014039D01*
X026566Y014137D02*
X025577Y014137D01*
X025577Y014236D02*
X026664Y014236D01*
X026763Y014334D02*
X025577Y014334D01*
X025577Y014433D02*
X026861Y014433D01*
X026960Y014531D02*
X025577Y014531D01*
X025577Y014630D02*
X027058Y014630D01*
X027157Y014728D02*
X025577Y014728D01*
X025649Y014827D02*
X027255Y014827D01*
X027354Y014925D02*
X025854Y014925D01*
X026016Y015024D02*
X027363Y015024D01*
X027363Y015122D02*
X026076Y015122D01*
X026097Y015221D02*
X027363Y015221D01*
X027363Y015319D02*
X026086Y015319D01*
X026040Y015418D02*
X027363Y015418D01*
X027363Y015516D02*
X025913Y015516D01*
X025661Y015516D02*
X025242Y015516D01*
X025287Y015418D02*
X025533Y015418D01*
X025487Y015319D02*
X025297Y015319D01*
X025276Y015221D02*
X025477Y015221D01*
X025407Y015122D02*
X025214Y015122D01*
X025309Y015024D02*
X025050Y015024D01*
X025210Y014925D02*
X024848Y014925D01*
X024749Y014827D02*
X025197Y014827D01*
X025197Y014728D02*
X024677Y014728D01*
X024677Y014630D02*
X025197Y014630D01*
X025197Y014531D02*
X024677Y014531D01*
X024677Y014433D02*
X025197Y014433D01*
X025197Y014334D02*
X024677Y014334D01*
X024677Y014236D02*
X025197Y014236D01*
X025197Y014137D02*
X024677Y014137D01*
X024677Y014039D02*
X025197Y014039D01*
X025197Y013940D02*
X024677Y013940D01*
X024677Y013842D02*
X025197Y013842D01*
X025197Y013743D02*
X024677Y013743D01*
X024677Y013645D02*
X025197Y013645D01*
X025197Y013546D02*
X024677Y013546D01*
X024677Y013448D02*
X025197Y013448D01*
X025197Y013349D02*
X024677Y013349D01*
X024677Y013251D02*
X025197Y013251D01*
X025197Y013152D02*
X024677Y013152D01*
X024677Y013054D02*
X025197Y013054D01*
X025197Y012955D02*
X024677Y012955D01*
X024677Y012857D02*
X025142Y012857D01*
X025043Y012758D02*
X024677Y012758D01*
X024677Y012660D02*
X024945Y012660D01*
X024846Y012561D02*
X024677Y012561D01*
X024748Y012463D02*
X024585Y012463D01*
X024649Y012364D02*
X024487Y012364D01*
X024551Y012266D02*
X024388Y012266D01*
X024452Y012167D02*
X024290Y012167D01*
X024354Y012069D02*
X024191Y012069D01*
X024255Y011970D02*
X024093Y011970D01*
X024157Y011872D02*
X023994Y011872D01*
X024058Y011773D02*
X023896Y011773D01*
X023960Y011675D02*
X023797Y011675D01*
X023861Y011576D02*
X023699Y011576D01*
X023763Y011478D02*
X023600Y011478D01*
X023664Y011379D02*
X023502Y011379D01*
X023566Y011281D02*
X023403Y011281D01*
X023467Y011182D02*
X023305Y011182D01*
X023369Y011084D02*
X023206Y011084D01*
X023270Y010985D02*
X023108Y010985D01*
X023172Y010887D02*
X023009Y010887D01*
X023073Y010788D02*
X022911Y010788D01*
X022975Y010690D02*
X018912Y010690D01*
X018814Y010591D02*
X022876Y010591D01*
X022778Y010493D02*
X018715Y010493D01*
X018777Y010554D02*
X018777Y010554D01*
X018114Y011084D02*
X017360Y011084D01*
X017397Y010985D02*
X017838Y010985D01*
X017752Y010887D02*
X017401Y010887D01*
X017500Y010788D02*
X017714Y010788D01*
X017714Y010690D02*
X017598Y010690D01*
X017697Y010591D02*
X017747Y010591D01*
X017795Y010493D02*
X017826Y010493D01*
X017894Y010394D02*
X022679Y010394D01*
X023684Y009705D02*
X036764Y009705D01*
X036764Y009803D02*
X035062Y009803D01*
X035042Y009783D02*
X035305Y010046D01*
X035305Y010183D01*
X034905Y010183D01*
X034905Y010283D01*
X034805Y010283D01*
X034805Y010683D01*
X034669Y010683D01*
X034405Y010419D01*
X034405Y010283D01*
X034805Y010283D01*
X034805Y010183D01*
X034405Y010183D01*
X034405Y010046D01*
X034669Y009783D01*
X034805Y009783D01*
X034805Y010183D01*
X034905Y010183D01*
X034905Y009783D01*
X035042Y009783D01*
X035042Y009683D02*
X034905Y009683D01*
X034905Y009283D01*
X034805Y009283D01*
X034805Y009683D01*
X034669Y009683D01*
X034405Y009419D01*
X034405Y009283D01*
X034805Y009283D01*
X034805Y009183D01*
X034405Y009183D01*
X034405Y009046D01*
X034669Y008783D01*
X034805Y008783D01*
X034805Y009183D01*
X034905Y009183D01*
X034905Y009283D01*
X035305Y009283D01*
X035305Y009419D01*
X035042Y009683D01*
X035118Y009606D02*
X036764Y009606D01*
X036764Y009508D02*
X035217Y009508D01*
X035305Y009409D02*
X036764Y009409D01*
X036764Y009311D02*
X035305Y009311D01*
X035305Y009183D02*
X034905Y009183D01*
X034905Y008783D01*
X035042Y008783D01*
X035305Y009046D01*
X035305Y009183D01*
X035305Y009114D02*
X036764Y009114D01*
X036764Y009212D02*
X034905Y009212D01*
X034905Y009114D02*
X034805Y009114D01*
X034805Y009212D02*
X034305Y009212D01*
X034305Y009114D02*
X034405Y009114D01*
X034436Y009015D02*
X034274Y009015D01*
X034305Y009046D02*
X034042Y008783D01*
X033669Y008783D01*
X033405Y009046D01*
X033405Y009419D01*
X033669Y009683D01*
X034042Y009683D01*
X034305Y009419D01*
X034305Y009046D01*
X034175Y008917D02*
X034535Y008917D01*
X034633Y008818D02*
X034077Y008818D01*
X033633Y008818D02*
X022797Y008818D01*
X022699Y008720D02*
X036764Y008720D01*
X036764Y008818D02*
X035077Y008818D01*
X035175Y008917D02*
X036764Y008917D01*
X036764Y009015D02*
X035274Y009015D01*
X034905Y009015D02*
X034805Y009015D01*
X034805Y008917D02*
X034905Y008917D01*
X034905Y008818D02*
X034805Y008818D01*
X034805Y009311D02*
X034905Y009311D01*
X034905Y009409D02*
X034805Y009409D01*
X034805Y009508D02*
X034905Y009508D01*
X034905Y009606D02*
X034805Y009606D01*
X034805Y009803D02*
X034905Y009803D01*
X034905Y009902D02*
X034805Y009902D01*
X034805Y010000D02*
X034905Y010000D01*
X034905Y010099D02*
X034805Y010099D01*
X034805Y010197D02*
X034305Y010197D01*
X034305Y010099D02*
X034405Y010099D01*
X034451Y010000D02*
X034259Y010000D01*
X034305Y010046D02*
X034042Y009783D01*
X033669Y009783D01*
X033405Y010046D01*
X033405Y010419D01*
X033669Y010683D01*
X034042Y010683D01*
X034305Y010419D01*
X034305Y010046D01*
X034160Y009902D02*
X034550Y009902D01*
X034648Y009803D02*
X034062Y009803D01*
X034118Y009606D02*
X034592Y009606D01*
X034494Y009508D02*
X034217Y009508D01*
X034305Y009409D02*
X034405Y009409D01*
X034405Y009311D02*
X034305Y009311D01*
X033592Y009606D02*
X023585Y009606D01*
X023487Y009508D02*
X033494Y009508D01*
X033405Y009409D02*
X023388Y009409D01*
X023290Y009311D02*
X033405Y009311D01*
X033405Y009212D02*
X023191Y009212D01*
X023093Y009114D02*
X033405Y009114D01*
X033436Y009015D02*
X022994Y009015D01*
X022896Y008917D02*
X033535Y008917D01*
X033648Y009803D02*
X023782Y009803D01*
X023881Y009902D02*
X033550Y009902D01*
X033451Y010000D02*
X023979Y010000D01*
X024078Y010099D02*
X033405Y010099D01*
X033405Y010197D02*
X024176Y010197D01*
X024275Y010296D02*
X033405Y010296D01*
X033405Y010394D02*
X024373Y010394D01*
X024472Y010493D02*
X033479Y010493D01*
X033577Y010591D02*
X024570Y010591D01*
X024669Y010690D02*
X036764Y010690D01*
X036764Y010788D02*
X035047Y010788D01*
X035042Y010783D02*
X035305Y011046D01*
X035305Y011183D01*
X034905Y011183D01*
X034905Y011283D01*
X034805Y011283D01*
X034805Y011683D01*
X034669Y011683D01*
X034405Y011419D01*
X034405Y011283D01*
X034805Y011283D01*
X034805Y011183D01*
X034405Y011183D01*
X034405Y011046D01*
X034669Y010783D01*
X034805Y010783D01*
X034805Y011183D01*
X034905Y011183D01*
X034905Y010783D01*
X035042Y010783D01*
X035042Y010683D02*
X034905Y010683D01*
X034905Y010283D01*
X035305Y010283D01*
X035305Y010419D01*
X035042Y010683D01*
X035133Y010591D02*
X036764Y010591D01*
X036764Y010493D02*
X035232Y010493D01*
X035305Y010394D02*
X036764Y010394D01*
X036764Y010296D02*
X035305Y010296D01*
X035305Y010099D02*
X036764Y010099D01*
X036764Y010197D02*
X034905Y010197D01*
X034905Y010296D02*
X034805Y010296D01*
X034805Y010394D02*
X034905Y010394D01*
X034905Y010493D02*
X034805Y010493D01*
X034805Y010591D02*
X034905Y010591D01*
X034905Y010788D02*
X034805Y010788D01*
X034805Y010887D02*
X034905Y010887D01*
X034905Y010985D02*
X034805Y010985D01*
X034805Y011084D02*
X034905Y011084D01*
X034905Y011182D02*
X034805Y011182D01*
X034805Y011281D02*
X034305Y011281D01*
X034305Y011379D02*
X034405Y011379D01*
X034305Y011419D02*
X034042Y011683D01*
X033669Y011683D01*
X033405Y011419D01*
X033405Y011046D01*
X033669Y010783D01*
X034042Y010783D01*
X034305Y011046D01*
X034305Y011419D01*
X034247Y011478D02*
X034464Y011478D01*
X034562Y011576D02*
X034148Y011576D01*
X034050Y011675D02*
X034661Y011675D01*
X034669Y011783D02*
X034405Y012046D01*
X034405Y012183D01*
X034805Y012183D01*
X034805Y012283D01*
X034805Y012683D01*
X034669Y012683D01*
X034405Y012419D01*
X034405Y012283D01*
X034805Y012283D01*
X034905Y012283D01*
X034905Y012683D01*
X035042Y012683D01*
X035305Y012419D01*
X035305Y012283D01*
X034905Y012283D01*
X034905Y012183D01*
X035305Y012183D01*
X035305Y012046D01*
X035042Y011783D01*
X034905Y011783D01*
X034905Y012183D01*
X034805Y012183D01*
X034805Y011783D01*
X034669Y011783D01*
X034580Y011872D02*
X034130Y011872D01*
X034042Y011783D02*
X033669Y011783D01*
X033405Y012046D01*
X033405Y012419D01*
X033669Y012683D01*
X034042Y012683D01*
X034305Y012419D01*
X034305Y012046D01*
X034042Y011783D01*
X034229Y011970D02*
X034481Y011970D01*
X034405Y012069D02*
X034305Y012069D01*
X034305Y012167D02*
X034405Y012167D01*
X034305Y012266D02*
X034805Y012266D01*
X034805Y012364D02*
X034905Y012364D01*
X034905Y012266D02*
X036764Y012266D01*
X036764Y012364D02*
X035305Y012364D01*
X035262Y012463D02*
X036764Y012463D01*
X036764Y012561D02*
X035163Y012561D01*
X035065Y012660D02*
X036764Y012660D01*
X036764Y012758D02*
X026217Y012758D01*
X026217Y012660D02*
X033646Y012660D01*
X033669Y012783D02*
X034042Y012783D01*
X034305Y013046D01*
X034305Y013419D01*
X034042Y013683D01*
X033669Y013683D01*
X033405Y013419D01*
X033405Y013046D01*
X033669Y012783D01*
X033595Y012857D02*
X026217Y012857D01*
X026217Y012955D02*
X033496Y012955D01*
X033405Y013054D02*
X026217Y013054D01*
X026231Y013152D02*
X033405Y013152D01*
X033405Y013251D02*
X026330Y013251D01*
X026428Y013349D02*
X033405Y013349D01*
X033434Y013448D02*
X026527Y013448D01*
X026625Y013546D02*
X033532Y013546D01*
X033631Y013645D02*
X026724Y013645D01*
X026822Y013743D02*
X036764Y013743D01*
X036764Y013645D02*
X035080Y013645D01*
X035042Y013683D02*
X035305Y013419D01*
X035305Y013283D01*
X034905Y013283D01*
X034805Y013283D01*
X034805Y013683D01*
X034669Y013683D01*
X034405Y013419D01*
X034405Y013283D01*
X034805Y013283D01*
X034805Y013183D01*
X034405Y013183D01*
X034405Y013046D01*
X034669Y012783D01*
X034805Y012783D01*
X034805Y013183D01*
X034905Y013183D01*
X034905Y013283D01*
X034905Y013683D01*
X035042Y013683D01*
X035042Y013783D02*
X035305Y014046D01*
X035305Y014183D01*
X034905Y014183D01*
X034905Y014283D01*
X034805Y014283D01*
X034805Y014683D01*
X034669Y014683D01*
X034405Y014419D01*
X034405Y014283D01*
X034805Y014283D01*
X034805Y014183D01*
X034405Y014183D01*
X034405Y014046D01*
X034669Y013783D01*
X034805Y013783D01*
X034805Y014183D01*
X034905Y014183D01*
X034905Y013783D01*
X035042Y013783D01*
X035100Y013842D02*
X036764Y013842D01*
X036764Y013940D02*
X035199Y013940D01*
X035297Y014039D02*
X036764Y014039D01*
X036764Y014137D02*
X035305Y014137D01*
X035305Y014283D02*
X035305Y014419D01*
X035042Y014683D01*
X034905Y014683D01*
X034905Y014283D01*
X035305Y014283D01*
X035305Y014334D02*
X036764Y014334D01*
X036764Y014236D02*
X034905Y014236D01*
X034905Y014334D02*
X034805Y014334D01*
X034805Y014236D02*
X034305Y014236D01*
X034305Y014334D02*
X034405Y014334D01*
X034419Y014433D02*
X034292Y014433D01*
X034305Y014419D02*
X034042Y014683D01*
X033669Y014683D01*
X033405Y014419D01*
X033405Y014046D01*
X033669Y013783D01*
X034042Y013783D01*
X034305Y014046D01*
X034305Y014419D01*
X034193Y014531D02*
X034517Y014531D01*
X034616Y014630D02*
X034095Y014630D01*
X034042Y014783D02*
X033669Y014783D01*
X033405Y015046D01*
X033405Y015419D01*
X033669Y015683D01*
X034042Y015683D01*
X034305Y015419D01*
X034305Y015046D01*
X034042Y014783D01*
X034085Y014827D02*
X034625Y014827D01*
X034669Y014783D02*
X034405Y015046D01*
X034405Y015183D01*
X034805Y015183D01*
X034805Y015283D01*
X034805Y015683D01*
X034669Y015683D01*
X034405Y015419D01*
X034405Y015283D01*
X034805Y015283D01*
X034905Y015283D01*
X034905Y015683D01*
X035042Y015683D01*
X035305Y015419D01*
X035305Y015283D01*
X034905Y015283D01*
X034905Y015183D01*
X035305Y015183D01*
X035305Y015046D01*
X035042Y014783D01*
X034905Y014783D01*
X034905Y015183D01*
X034805Y015183D01*
X034805Y014783D01*
X034669Y014783D01*
X034805Y014827D02*
X034905Y014827D01*
X034905Y014925D02*
X034805Y014925D01*
X034805Y015024D02*
X034905Y015024D01*
X034905Y015122D02*
X034805Y015122D01*
X034805Y015221D02*
X034305Y015221D01*
X034305Y015319D02*
X034405Y015319D01*
X034405Y015418D02*
X034305Y015418D01*
X034208Y015516D02*
X034502Y015516D01*
X034601Y015615D02*
X034110Y015615D01*
X034042Y015783D02*
X033669Y015783D01*
X033405Y016046D01*
X033405Y016419D01*
X033669Y016683D01*
X034042Y016683D01*
X034305Y016419D01*
X034305Y016046D01*
X034042Y015783D01*
X034070Y015812D02*
X034640Y015812D01*
X034669Y015783D02*
X034405Y016046D01*
X034405Y016183D01*
X034805Y016183D01*
X034805Y016283D01*
X034805Y016683D01*
X034669Y016683D01*
X034405Y016419D01*
X034405Y016283D01*
X034805Y016283D01*
X034905Y016283D01*
X034905Y016683D01*
X035042Y016683D01*
X035305Y016419D01*
X035305Y016283D01*
X034905Y016283D01*
X034905Y016183D01*
X035305Y016183D01*
X035305Y016046D01*
X035042Y015783D01*
X034905Y015783D01*
X034905Y016183D01*
X034805Y016183D01*
X034805Y015783D01*
X034669Y015783D01*
X034805Y015812D02*
X034905Y015812D01*
X034905Y015910D02*
X034805Y015910D01*
X034805Y016009D02*
X034905Y016009D01*
X034905Y016107D02*
X034805Y016107D01*
X034805Y016206D02*
X034305Y016206D01*
X034305Y016304D02*
X034405Y016304D01*
X034405Y016403D02*
X034305Y016403D01*
X034223Y016501D02*
X034487Y016501D01*
X034586Y016600D02*
X034125Y016600D01*
X034042Y016783D02*
X034305Y017046D01*
X034305Y017419D01*
X034042Y017683D01*
X033669Y017683D01*
X033405Y017419D01*
X033405Y017046D01*
X033669Y016783D01*
X034042Y016783D01*
X034055Y016797D02*
X034655Y016797D01*
X034669Y016783D02*
X034405Y017046D01*
X034405Y017183D01*
X034805Y017183D01*
X034805Y017283D01*
X034805Y017683D01*
X034669Y017683D01*
X034405Y017419D01*
X034405Y017283D01*
X034805Y017283D01*
X034905Y017283D01*
X034905Y017683D01*
X035042Y017683D01*
X035305Y017419D01*
X035305Y017283D01*
X034905Y017283D01*
X034905Y017183D01*
X035305Y017183D01*
X035305Y017046D01*
X035042Y016783D01*
X034905Y016783D01*
X034905Y017183D01*
X034805Y017183D01*
X034805Y016783D01*
X034669Y016783D01*
X034805Y016797D02*
X034905Y016797D01*
X034905Y016895D02*
X034805Y016895D01*
X034805Y016994D02*
X034905Y016994D01*
X034905Y017092D02*
X034805Y017092D01*
X034805Y017191D02*
X034305Y017191D01*
X034305Y017289D02*
X034405Y017289D01*
X034405Y017388D02*
X034305Y017388D01*
X034238Y017486D02*
X034472Y017486D01*
X034571Y017585D02*
X034140Y017585D01*
X034217Y017783D02*
X034305Y017871D01*
X034305Y018595D01*
X034217Y018683D01*
X033493Y018683D01*
X033405Y018595D01*
X033405Y017871D01*
X033493Y017783D01*
X034217Y017783D01*
X034305Y017880D02*
X034571Y017880D01*
X034669Y017783D02*
X034405Y018046D01*
X034405Y018419D01*
X034669Y018683D01*
X035042Y018683D01*
X035305Y018419D01*
X035305Y018046D01*
X035042Y017783D01*
X034669Y017783D01*
X034805Y017585D02*
X034905Y017585D01*
X034905Y017486D02*
X034805Y017486D01*
X034805Y017388D02*
X034905Y017388D01*
X034905Y017289D02*
X034805Y017289D01*
X034905Y017191D02*
X036764Y017191D01*
X036764Y017289D02*
X035305Y017289D01*
X035305Y017388D02*
X036764Y017388D01*
X036764Y017486D02*
X035238Y017486D01*
X035140Y017585D02*
X036764Y017585D01*
X036764Y017683D02*
X029313Y017683D01*
X029313Y017585D02*
X033571Y017585D01*
X033472Y017486D02*
X029313Y017486D01*
X029313Y017388D02*
X033405Y017388D01*
X033405Y017289D02*
X029313Y017289D01*
X029313Y017191D02*
X033405Y017191D01*
X033405Y017092D02*
X029313Y017092D01*
X029313Y016994D02*
X033458Y016994D01*
X033556Y016895D02*
X029313Y016895D01*
X029313Y016797D02*
X033655Y016797D01*
X033586Y016600D02*
X029313Y016600D01*
X029313Y016698D02*
X036764Y016698D01*
X036764Y016600D02*
X035125Y016600D01*
X035223Y016501D02*
X036764Y016501D01*
X036764Y016403D02*
X035305Y016403D01*
X035305Y016304D02*
X036764Y016304D01*
X036764Y016206D02*
X034905Y016206D01*
X034905Y016304D02*
X034805Y016304D01*
X034805Y016403D02*
X034905Y016403D01*
X034905Y016501D02*
X034805Y016501D01*
X034805Y016600D02*
X034905Y016600D01*
X035055Y016797D02*
X036764Y016797D01*
X036764Y016895D02*
X035154Y016895D01*
X035252Y016994D02*
X036764Y016994D01*
X036764Y017092D02*
X035305Y017092D01*
X034556Y016895D02*
X034154Y016895D01*
X034252Y016994D02*
X034458Y016994D01*
X034405Y017092D02*
X034305Y017092D01*
X034305Y016107D02*
X034405Y016107D01*
X034443Y016009D02*
X034267Y016009D01*
X034169Y015910D02*
X034541Y015910D01*
X034805Y015615D02*
X034905Y015615D01*
X034905Y015516D02*
X034805Y015516D01*
X034805Y015418D02*
X034905Y015418D01*
X034905Y015319D02*
X034805Y015319D01*
X034905Y015221D02*
X036764Y015221D01*
X036764Y015319D02*
X035305Y015319D01*
X035305Y015418D02*
X036764Y015418D01*
X036764Y015516D02*
X035208Y015516D01*
X035110Y015615D02*
X036764Y015615D01*
X036764Y015713D02*
X029313Y015713D01*
X029313Y015615D02*
X033601Y015615D01*
X033502Y015516D02*
X029313Y015516D01*
X029313Y015418D02*
X033405Y015418D01*
X033405Y015319D02*
X029313Y015319D01*
X029313Y015221D02*
X033405Y015221D01*
X033405Y015122D02*
X029313Y015122D01*
X029313Y015024D02*
X033428Y015024D01*
X033526Y014925D02*
X029313Y014925D01*
X029313Y014833D02*
X029313Y021165D01*
X029313Y021356D01*
X028793Y021876D01*
X028793Y022187D01*
X028530Y022450D01*
X028157Y022450D01*
X027893Y022187D01*
X027893Y021814D01*
X028157Y021550D01*
X028468Y021550D01*
X028853Y021165D01*
X028853Y014833D01*
X028766Y014745D01*
X028708Y014607D01*
X028708Y014458D01*
X028766Y014320D01*
X028871Y014215D01*
X029009Y014158D01*
X029158Y014158D01*
X029296Y014215D01*
X029401Y014320D01*
X029458Y014458D01*
X029458Y014607D01*
X029401Y014745D01*
X029313Y014833D01*
X029320Y014827D02*
X033625Y014827D01*
X033616Y014630D02*
X029449Y014630D01*
X029458Y014531D02*
X033517Y014531D01*
X033419Y014433D02*
X029448Y014433D01*
X029407Y014334D02*
X033405Y014334D01*
X033405Y014236D02*
X029317Y014236D01*
X028850Y014236D02*
X027315Y014236D01*
X027413Y014334D02*
X028760Y014334D01*
X028719Y014433D02*
X027512Y014433D01*
X027610Y014531D02*
X028708Y014531D01*
X028718Y014630D02*
X027709Y014630D01*
X027807Y014728D02*
X028758Y014728D01*
X028847Y014827D02*
X027823Y014827D01*
X027823Y014925D02*
X028853Y014925D01*
X028853Y015024D02*
X027823Y015024D01*
X027823Y015122D02*
X028853Y015122D01*
X028853Y015221D02*
X027823Y015221D01*
X027823Y015319D02*
X028853Y015319D01*
X028853Y015418D02*
X027823Y015418D01*
X027823Y015516D02*
X028853Y015516D01*
X028853Y015615D02*
X027823Y015615D01*
X027823Y015713D02*
X028853Y015713D01*
X028853Y015812D02*
X027823Y015812D01*
X027823Y015910D02*
X028853Y015910D01*
X028853Y016009D02*
X027823Y016009D01*
X027823Y016107D02*
X028853Y016107D01*
X028853Y016206D02*
X027823Y016206D01*
X027823Y016304D02*
X028853Y016304D01*
X028853Y016403D02*
X027823Y016403D01*
X027823Y016501D02*
X028853Y016501D01*
X028853Y016600D02*
X027823Y016600D01*
X027823Y016698D02*
X028853Y016698D01*
X028853Y016797D02*
X027823Y016797D01*
X027823Y016895D02*
X028853Y016895D01*
X028853Y016994D02*
X027823Y016994D01*
X027823Y017092D02*
X028853Y017092D01*
X028853Y017191D02*
X027823Y017191D01*
X027864Y017289D02*
X028853Y017289D01*
X028853Y017388D02*
X027874Y017388D01*
X027853Y017486D02*
X028853Y017486D01*
X028853Y017585D02*
X027792Y017585D01*
X027629Y017683D02*
X028853Y017683D01*
X028853Y017782D02*
X026806Y017782D01*
X026708Y017880D02*
X028853Y017880D01*
X028853Y017979D02*
X026609Y017979D01*
X026511Y018077D02*
X028853Y018077D01*
X028853Y018176D02*
X026412Y018176D01*
X026314Y018274D02*
X028853Y018274D01*
X028853Y018373D02*
X026215Y018373D01*
X026117Y018471D02*
X028853Y018471D01*
X028853Y018570D02*
X026018Y018570D01*
X025920Y018668D02*
X028853Y018668D01*
X028853Y018767D02*
X016621Y018767D01*
X016523Y018865D02*
X028853Y018865D01*
X028853Y018964D02*
X016424Y018964D01*
X016326Y019062D02*
X028853Y019062D01*
X028853Y019161D02*
X016227Y019161D01*
X016129Y019259D02*
X028853Y019259D01*
X028853Y019358D02*
X016030Y019358D01*
X016077Y019311D02*
X015965Y019423D01*
X015154Y019423D01*
X012758Y021819D01*
X012758Y022187D01*
X012494Y022450D01*
X012121Y022450D01*
X011858Y022187D01*
X011858Y021814D01*
X012121Y021550D01*
X012489Y021550D01*
X014817Y019223D01*
X014354Y019223D01*
X011758Y021819D01*
X011758Y022187D01*
X011494Y022450D01*
X011121Y022450D01*
X010858Y022187D01*
X010858Y021814D01*
X011121Y021550D01*
X011489Y021550D01*
X014197Y018843D01*
X015508Y018843D01*
X016177Y018174D01*
X016177Y018071D01*
X016224Y017957D01*
X016311Y017870D01*
X016425Y017823D01*
X016548Y017823D01*
X016662Y017870D01*
X016737Y017944D01*
X016811Y017870D01*
X016925Y017823D01*
X017048Y017823D01*
X017162Y017870D01*
X017249Y017957D01*
X017297Y018071D01*
X017297Y018194D01*
X017249Y018308D01*
X017162Y018395D01*
X017048Y018443D01*
X016945Y018443D01*
X016077Y019311D01*
X015584Y018767D02*
X005568Y018767D01*
X005568Y018865D02*
X014175Y018865D01*
X014076Y018964D02*
X005568Y018964D01*
X005568Y019062D02*
X013978Y019062D01*
X013879Y019161D02*
X005568Y019161D01*
X005568Y019259D02*
X013781Y019259D01*
X013682Y019358D02*
X005568Y019358D01*
X005568Y019456D02*
X013584Y019456D01*
X013485Y019555D02*
X005568Y019555D01*
X005568Y019653D02*
X013387Y019653D01*
X013288Y019752D02*
X005568Y019752D01*
X005568Y019850D02*
X013190Y019850D01*
X013091Y019949D02*
X005568Y019949D01*
X005568Y020047D02*
X012993Y020047D01*
X012894Y020146D02*
X005568Y020146D01*
X005568Y020244D02*
X012796Y020244D01*
X012697Y020343D02*
X005568Y020343D01*
X005568Y020441D02*
X012599Y020441D01*
X012500Y020540D02*
X007420Y020540D01*
X007630Y020638D02*
X012402Y020638D01*
X012303Y020737D02*
X007784Y020737D01*
X007907Y020835D02*
X012205Y020835D01*
X012106Y020934D02*
X008001Y020934D01*
X008074Y021032D02*
X012008Y021032D01*
X011909Y021131D02*
X008143Y021131D01*
X008196Y021229D02*
X011811Y021229D01*
X011712Y021328D02*
X008233Y021328D01*
X008270Y021426D02*
X011614Y021426D01*
X011515Y021525D02*
X008291Y021525D01*
X008313Y021623D02*
X010049Y021623D01*
X010121Y021550D02*
X010494Y021550D01*
X010758Y021814D01*
X010758Y022187D01*
X010494Y022450D01*
X010121Y022450D01*
X009858Y022187D01*
X009858Y021814D01*
X010121Y021550D01*
X009950Y021722D02*
X008319Y021722D01*
X008326Y021820D02*
X009858Y021820D01*
X009858Y021919D02*
X008324Y021919D01*
X008324Y022017D02*
X009858Y022017D01*
X009858Y022116D02*
X008324Y022116D01*
X008324Y022214D02*
X009885Y022214D01*
X009984Y022313D02*
X008324Y022313D01*
X008324Y022411D02*
X010082Y022411D01*
X010534Y022411D02*
X011082Y022411D01*
X010984Y022313D02*
X010632Y022313D01*
X010731Y022214D02*
X010885Y022214D01*
X010858Y022116D02*
X010758Y022116D01*
X010758Y022017D02*
X010858Y022017D01*
X010858Y021919D02*
X010758Y021919D01*
X010758Y021820D02*
X010858Y021820D01*
X010950Y021722D02*
X010665Y021722D01*
X010567Y021623D02*
X011049Y021623D01*
X011758Y021820D02*
X011858Y021820D01*
X011855Y021722D02*
X011950Y021722D01*
X011954Y021623D02*
X012049Y021623D01*
X012052Y021525D02*
X012515Y021525D01*
X012614Y021426D02*
X012151Y021426D01*
X012249Y021328D02*
X012712Y021328D01*
X012811Y021229D02*
X012348Y021229D01*
X012446Y021131D02*
X012909Y021131D01*
X013008Y021032D02*
X012545Y021032D01*
X012643Y020934D02*
X013106Y020934D01*
X013205Y020835D02*
X012742Y020835D01*
X012840Y020737D02*
X013303Y020737D01*
X013402Y020638D02*
X012939Y020638D01*
X013037Y020540D02*
X013500Y020540D01*
X013599Y020441D02*
X013136Y020441D01*
X013234Y020343D02*
X013697Y020343D01*
X013796Y020244D02*
X013333Y020244D01*
X013431Y020146D02*
X013894Y020146D01*
X013993Y020047D02*
X013530Y020047D01*
X013628Y019949D02*
X014091Y019949D01*
X014190Y019850D02*
X013727Y019850D01*
X013825Y019752D02*
X014288Y019752D01*
X014387Y019653D02*
X013924Y019653D01*
X014022Y019555D02*
X014485Y019555D01*
X014584Y019456D02*
X014121Y019456D01*
X014219Y019358D02*
X014682Y019358D01*
X014781Y019259D02*
X014318Y019259D01*
X014924Y019653D02*
X028853Y019653D01*
X028853Y019555D02*
X015022Y019555D01*
X015121Y019456D02*
X028853Y019456D01*
X028853Y019752D02*
X014825Y019752D01*
X014727Y019850D02*
X028853Y019850D01*
X028853Y019949D02*
X014628Y019949D01*
X014530Y020047D02*
X028853Y020047D01*
X028853Y020146D02*
X014431Y020146D01*
X014333Y020244D02*
X028853Y020244D01*
X028853Y020343D02*
X014234Y020343D01*
X014136Y020441D02*
X028853Y020441D01*
X028853Y020540D02*
X014037Y020540D01*
X013939Y020638D02*
X028853Y020638D01*
X028853Y020737D02*
X013840Y020737D01*
X013742Y020835D02*
X028853Y020835D01*
X028853Y020934D02*
X013643Y020934D01*
X013545Y021032D02*
X028853Y021032D01*
X028853Y021131D02*
X013446Y021131D01*
X013348Y021229D02*
X028789Y021229D01*
X028691Y021328D02*
X013249Y021328D01*
X013151Y021426D02*
X028592Y021426D01*
X028494Y021525D02*
X013052Y021525D01*
X013121Y021550D02*
X013494Y021550D01*
X013758Y021814D01*
X013758Y022187D01*
X013494Y022450D01*
X013121Y022450D01*
X012858Y022187D01*
X012858Y021814D01*
X013121Y021550D01*
X013049Y021623D02*
X012954Y021623D01*
X012950Y021722D02*
X012855Y021722D01*
X012858Y021820D02*
X012758Y021820D01*
X012758Y021919D02*
X012858Y021919D01*
X012858Y022017D02*
X012758Y022017D01*
X012758Y022116D02*
X012858Y022116D01*
X012885Y022214D02*
X012731Y022214D01*
X012632Y022313D02*
X012984Y022313D01*
X013082Y022411D02*
X012534Y022411D01*
X012082Y022411D02*
X011534Y022411D01*
X011632Y022313D02*
X011984Y022313D01*
X011885Y022214D02*
X011731Y022214D01*
X011758Y022116D02*
X011858Y022116D01*
X011858Y022017D02*
X011758Y022017D01*
X011758Y021919D02*
X011858Y021919D01*
X013567Y021623D02*
X014049Y021623D01*
X014121Y021550D02*
X013858Y021814D01*
X013858Y021950D01*
X014258Y021950D01*
X014358Y021950D01*
X014358Y021550D01*
X014494Y021550D01*
X014758Y021814D01*
X014758Y021950D01*
X014358Y021950D01*
X014358Y022050D01*
X014758Y022050D01*
X014758Y022187D01*
X014494Y022450D01*
X014358Y022450D01*
X014358Y022050D01*
X014258Y022050D01*
X014258Y021950D01*
X014258Y021550D01*
X014121Y021550D01*
X014258Y021623D02*
X014358Y021623D01*
X014358Y021722D02*
X014258Y021722D01*
X014258Y021820D02*
X014358Y021820D01*
X014358Y021919D02*
X014258Y021919D01*
X014258Y022017D02*
X013758Y022017D01*
X013758Y021919D02*
X013858Y021919D01*
X013858Y021820D02*
X013758Y021820D01*
X013665Y021722D02*
X013950Y021722D01*
X013858Y022050D02*
X014258Y022050D01*
X014258Y022450D01*
X014121Y022450D01*
X013858Y022187D01*
X013858Y022050D01*
X013858Y022116D02*
X013758Y022116D01*
X013731Y022214D02*
X013885Y022214D01*
X013984Y022313D02*
X013632Y022313D01*
X013534Y022411D02*
X014082Y022411D01*
X014258Y022411D02*
X014358Y022411D01*
X014358Y022313D02*
X014258Y022313D01*
X014258Y022214D02*
X014358Y022214D01*
X014358Y022116D02*
X014258Y022116D01*
X014358Y022017D02*
X019988Y022017D01*
X019988Y021919D02*
X014758Y021919D01*
X014758Y021820D02*
X019988Y021820D01*
X019988Y021814D02*
X020251Y021550D01*
X020624Y021550D01*
X020888Y021814D01*
X020888Y022187D01*
X020624Y022450D01*
X020251Y022450D01*
X019988Y022187D01*
X019988Y021814D01*
X020080Y021722D02*
X014665Y021722D01*
X014567Y021623D02*
X020179Y021623D01*
X020697Y021623D02*
X021179Y021623D01*
X021251Y021550D02*
X020988Y021814D01*
X020988Y021950D01*
X021388Y021950D01*
X021488Y021950D01*
X021488Y021550D01*
X021624Y021550D01*
X021888Y021814D01*
X021888Y021950D01*
X021488Y021950D01*
X021488Y022050D01*
X021888Y022050D01*
X021888Y022187D01*
X021624Y022450D01*
X021488Y022450D01*
X021488Y022050D01*
X021388Y022050D01*
X021388Y021950D01*
X021388Y021550D01*
X021251Y021550D01*
X021388Y021623D02*
X021488Y021623D01*
X021488Y021722D02*
X021388Y021722D01*
X021388Y021820D02*
X021488Y021820D01*
X021488Y021919D02*
X021388Y021919D01*
X021388Y022017D02*
X020888Y022017D01*
X020888Y021919D02*
X020988Y021919D01*
X020988Y021820D02*
X020888Y021820D01*
X020795Y021722D02*
X021080Y021722D01*
X020988Y022050D02*
X021388Y022050D01*
X021388Y022450D01*
X021251Y022450D01*
X020988Y022187D01*
X020988Y022050D01*
X020988Y022116D02*
X020888Y022116D01*
X020861Y022214D02*
X021015Y022214D01*
X021114Y022313D02*
X020762Y022313D01*
X020664Y022411D02*
X021212Y022411D01*
X021388Y022411D02*
X021488Y022411D01*
X021488Y022313D02*
X021388Y022313D01*
X021388Y022214D02*
X021488Y022214D01*
X021488Y022116D02*
X021388Y022116D01*
X021488Y022017D02*
X021988Y022017D01*
X021988Y021919D02*
X021888Y021919D01*
X021888Y021820D02*
X021988Y021820D01*
X021988Y021814D02*
X022251Y021550D01*
X022624Y021550D01*
X022888Y021814D01*
X022888Y022187D01*
X022624Y022450D01*
X022251Y022450D01*
X021988Y022187D01*
X021988Y021814D01*
X022080Y021722D02*
X021795Y021722D01*
X021697Y021623D02*
X022179Y021623D01*
X022697Y021623D02*
X023179Y021623D01*
X023251Y021550D02*
X023624Y021550D01*
X023888Y021814D01*
X023888Y022187D01*
X023624Y022450D01*
X023251Y022450D01*
X022988Y022187D01*
X022988Y021814D01*
X023251Y021550D01*
X023080Y021722D02*
X022795Y021722D01*
X022888Y021820D02*
X022988Y021820D01*
X022988Y021919D02*
X022888Y021919D01*
X022888Y022017D02*
X022988Y022017D01*
X022988Y022116D02*
X022888Y022116D01*
X022861Y022214D02*
X023015Y022214D01*
X023114Y022313D02*
X022762Y022313D01*
X022664Y022411D02*
X023212Y022411D01*
X023664Y022411D02*
X024212Y022411D01*
X024251Y022450D02*
X023988Y022187D01*
X023988Y021814D01*
X024251Y021550D01*
X024624Y021550D01*
X024888Y021814D01*
X024888Y022187D01*
X024624Y022450D01*
X024251Y022450D01*
X024114Y022313D02*
X023762Y022313D01*
X023861Y022214D02*
X024015Y022214D01*
X023988Y022116D02*
X023888Y022116D01*
X023888Y022017D02*
X023988Y022017D01*
X023988Y021919D02*
X023888Y021919D01*
X023888Y021820D02*
X023988Y021820D01*
X024080Y021722D02*
X023795Y021722D01*
X023697Y021623D02*
X024179Y021623D01*
X024697Y021623D02*
X025179Y021623D01*
X025251Y021550D02*
X025624Y021550D01*
X025888Y021814D01*
X025888Y022187D01*
X025624Y022450D01*
X025251Y022450D01*
X024988Y022187D01*
X024988Y021814D01*
X025251Y021550D01*
X025080Y021722D02*
X024795Y021722D01*
X024888Y021820D02*
X024988Y021820D01*
X024988Y021919D02*
X024888Y021919D01*
X024888Y022017D02*
X024988Y022017D01*
X024988Y022116D02*
X024888Y022116D01*
X024861Y022214D02*
X025015Y022214D01*
X025114Y022313D02*
X024762Y022313D01*
X024664Y022411D02*
X025212Y022411D01*
X025664Y022411D02*
X028118Y022411D01*
X028019Y022313D02*
X025762Y022313D01*
X025861Y022214D02*
X027921Y022214D01*
X027893Y022116D02*
X025888Y022116D01*
X025888Y022017D02*
X027893Y022017D01*
X027893Y021919D02*
X025888Y021919D01*
X025888Y021820D02*
X027893Y021820D01*
X027986Y021722D02*
X025795Y021722D01*
X025697Y021623D02*
X028084Y021623D01*
X028793Y021919D02*
X028893Y021919D01*
X028893Y022017D02*
X028793Y022017D01*
X028793Y022116D02*
X028893Y022116D01*
X028893Y022187D02*
X028893Y021814D01*
X029157Y021550D01*
X029530Y021550D01*
X029793Y021814D01*
X029793Y022187D01*
X029530Y022450D01*
X029157Y022450D01*
X028893Y022187D01*
X028921Y022214D02*
X028766Y022214D01*
X028668Y022313D02*
X029019Y022313D01*
X029118Y022411D02*
X028569Y022411D01*
X028849Y021820D02*
X028893Y021820D01*
X028947Y021722D02*
X028986Y021722D01*
X029046Y021623D02*
X029084Y021623D01*
X029144Y021525D02*
X034041Y021525D01*
X034019Y021623D02*
X029602Y021623D01*
X029701Y021722D02*
X034014Y021722D01*
X034007Y021820D02*
X029793Y021820D01*
X029793Y021919D02*
X034008Y021919D01*
X034008Y022017D02*
X029793Y022017D01*
X029793Y022116D02*
X034008Y022116D01*
X034008Y022214D02*
X029766Y022214D01*
X029668Y022313D02*
X034008Y022313D01*
X034008Y022411D02*
X029569Y022411D01*
X029243Y021426D02*
X034062Y021426D01*
X034099Y021328D02*
X029313Y021328D01*
X029313Y021229D02*
X034136Y021229D01*
X034189Y021131D02*
X029313Y021131D01*
X029313Y021032D02*
X034258Y021032D01*
X034331Y020934D02*
X029313Y020934D01*
X029313Y020835D02*
X034425Y020835D01*
X034549Y020737D02*
X029313Y020737D01*
X029313Y020638D02*
X034703Y020638D01*
X034912Y020540D02*
X029313Y020540D01*
X029313Y020441D02*
X036764Y020441D01*
X036764Y020343D02*
X029313Y020343D01*
X029313Y020244D02*
X036764Y020244D01*
X036764Y020146D02*
X029313Y020146D01*
X029313Y020047D02*
X036764Y020047D01*
X036764Y019949D02*
X029313Y019949D01*
X029313Y019850D02*
X036764Y019850D01*
X036764Y019752D02*
X029313Y019752D01*
X029313Y019653D02*
X036764Y019653D01*
X036764Y019555D02*
X029313Y019555D01*
X029313Y019456D02*
X036764Y019456D01*
X036764Y019358D02*
X029313Y019358D01*
X029313Y019259D02*
X036764Y019259D01*
X036764Y019161D02*
X029313Y019161D01*
X029313Y019062D02*
X036764Y019062D01*
X036764Y018964D02*
X029313Y018964D01*
X029313Y018865D02*
X036764Y018865D01*
X036764Y018767D02*
X029313Y018767D01*
X029313Y018668D02*
X033478Y018668D01*
X033405Y018570D02*
X029313Y018570D01*
X029313Y018471D02*
X033405Y018471D01*
X033405Y018373D02*
X029313Y018373D01*
X029313Y018274D02*
X033405Y018274D01*
X033405Y018176D02*
X029313Y018176D01*
X029313Y018077D02*
X033405Y018077D01*
X033405Y017979D02*
X029313Y017979D01*
X029313Y017880D02*
X033405Y017880D01*
X034305Y017979D02*
X034473Y017979D01*
X034405Y018077D02*
X034305Y018077D01*
X034305Y018176D02*
X034405Y018176D01*
X034405Y018274D02*
X034305Y018274D01*
X034305Y018373D02*
X034405Y018373D01*
X034457Y018471D02*
X034305Y018471D01*
X034305Y018570D02*
X034556Y018570D01*
X034654Y018668D02*
X034232Y018668D01*
X035056Y018668D02*
X036764Y018668D01*
X036764Y018570D02*
X035155Y018570D01*
X035253Y018471D02*
X036764Y018471D01*
X036764Y018373D02*
X035305Y018373D01*
X035305Y018274D02*
X036764Y018274D01*
X036764Y018176D02*
X035305Y018176D01*
X035305Y018077D02*
X036764Y018077D01*
X036764Y017979D02*
X035237Y017979D01*
X035139Y017880D02*
X036764Y017880D01*
X036764Y017782D02*
X029313Y017782D01*
X029313Y016501D02*
X033487Y016501D01*
X033405Y016403D02*
X029313Y016403D01*
X029313Y016304D02*
X033405Y016304D01*
X033405Y016206D02*
X029313Y016206D01*
X029313Y016107D02*
X033405Y016107D01*
X033443Y016009D02*
X029313Y016009D01*
X029313Y015910D02*
X033541Y015910D01*
X033640Y015812D02*
X029313Y015812D01*
X029408Y014728D02*
X036764Y014728D01*
X036764Y014630D02*
X035095Y014630D01*
X035193Y014531D02*
X036764Y014531D01*
X036764Y014433D02*
X035292Y014433D01*
X034905Y014433D02*
X034805Y014433D01*
X034805Y014531D02*
X034905Y014531D01*
X034905Y014630D02*
X034805Y014630D01*
X035085Y014827D02*
X036764Y014827D01*
X036764Y014925D02*
X035184Y014925D01*
X035282Y015024D02*
X036764Y015024D01*
X036764Y015122D02*
X035305Y015122D01*
X035070Y015812D02*
X036764Y015812D01*
X036764Y015910D02*
X035169Y015910D01*
X035267Y016009D02*
X036764Y016009D01*
X036764Y016107D02*
X035305Y016107D01*
X034405Y015122D02*
X034305Y015122D01*
X034282Y015024D02*
X034428Y015024D01*
X034526Y014925D02*
X034184Y014925D01*
X034305Y014137D02*
X034405Y014137D01*
X034413Y014039D02*
X034297Y014039D01*
X034199Y013940D02*
X034511Y013940D01*
X034610Y013842D02*
X034100Y013842D01*
X034080Y013645D02*
X034631Y013645D01*
X034532Y013546D02*
X034178Y013546D01*
X034277Y013448D02*
X034434Y013448D01*
X034405Y013349D02*
X034305Y013349D01*
X034305Y013251D02*
X034805Y013251D01*
X034805Y013349D02*
X034905Y013349D01*
X034905Y013251D02*
X036764Y013251D01*
X036764Y013349D02*
X035305Y013349D01*
X035277Y013448D02*
X036764Y013448D01*
X036764Y013546D02*
X035178Y013546D01*
X034905Y013546D02*
X034805Y013546D01*
X034805Y013448D02*
X034905Y013448D01*
X034905Y013645D02*
X034805Y013645D01*
X034805Y013842D02*
X034905Y013842D01*
X034905Y013940D02*
X034805Y013940D01*
X034805Y014039D02*
X034905Y014039D01*
X034905Y014137D02*
X034805Y014137D01*
X034905Y013183D02*
X035305Y013183D01*
X035305Y013046D01*
X035042Y012783D01*
X034905Y012783D01*
X034905Y013183D01*
X034905Y013152D02*
X034805Y013152D01*
X034805Y013054D02*
X034905Y013054D01*
X034905Y012955D02*
X034805Y012955D01*
X034805Y012857D02*
X034905Y012857D01*
X034905Y012660D02*
X034805Y012660D01*
X034805Y012561D02*
X034905Y012561D01*
X034905Y012463D02*
X034805Y012463D01*
X034646Y012660D02*
X034065Y012660D01*
X034163Y012561D02*
X034547Y012561D01*
X034449Y012463D02*
X034262Y012463D01*
X034305Y012364D02*
X034405Y012364D01*
X034805Y012167D02*
X034905Y012167D01*
X034905Y012069D02*
X034805Y012069D01*
X034805Y011970D02*
X034905Y011970D01*
X034905Y011872D02*
X034805Y011872D01*
X034805Y011675D02*
X034905Y011675D01*
X034905Y011683D02*
X034905Y011283D01*
X035305Y011283D01*
X035305Y011419D01*
X035042Y011683D01*
X034905Y011683D01*
X034905Y011576D02*
X034805Y011576D01*
X034805Y011478D02*
X034905Y011478D01*
X034905Y011379D02*
X034805Y011379D01*
X034905Y011281D02*
X036764Y011281D01*
X036764Y011379D02*
X035305Y011379D01*
X035247Y011478D02*
X036764Y011478D01*
X036764Y011576D02*
X035148Y011576D01*
X035050Y011675D02*
X036764Y011675D01*
X036764Y011773D02*
X025752Y011773D01*
X025654Y011675D02*
X033661Y011675D01*
X033562Y011576D02*
X025555Y011576D01*
X025457Y011478D02*
X033464Y011478D01*
X033405Y011379D02*
X025358Y011379D01*
X025260Y011281D02*
X033405Y011281D01*
X033405Y011182D02*
X025161Y011182D01*
X025063Y011084D02*
X033405Y011084D01*
X033466Y010985D02*
X024964Y010985D01*
X024866Y010887D02*
X033565Y010887D01*
X033663Y010788D02*
X024767Y010788D01*
X025851Y011872D02*
X033580Y011872D01*
X033481Y011970D02*
X025949Y011970D01*
X026159Y012069D02*
X033405Y012069D01*
X033405Y012167D02*
X026254Y012167D01*
X026294Y012266D02*
X033405Y012266D01*
X033405Y012364D02*
X026297Y012364D01*
X026268Y012463D02*
X033449Y012463D01*
X033547Y012561D02*
X026217Y012561D01*
X026921Y013842D02*
X033610Y013842D01*
X033511Y013940D02*
X027019Y013940D01*
X027118Y014039D02*
X033413Y014039D01*
X033405Y014137D02*
X027216Y014137D01*
X027363Y015615D02*
X025116Y015615D01*
X024857Y015615D02*
X023173Y015615D01*
X023075Y015713D02*
X027363Y015713D01*
X027363Y015812D02*
X022976Y015812D01*
X022878Y015910D02*
X027363Y015910D01*
X027363Y016009D02*
X027201Y016009D01*
X027270Y016107D02*
X027363Y016107D01*
X027363Y016206D02*
X027297Y016206D01*
X027293Y016304D02*
X027363Y016304D01*
X027363Y016403D02*
X027252Y016403D01*
X026772Y016009D02*
X022779Y016009D01*
X023272Y015516D02*
X024732Y015516D01*
X024686Y015418D02*
X023370Y015418D01*
X023469Y015319D02*
X024677Y015319D01*
X024606Y015221D02*
X024302Y015221D01*
X024436Y015122D02*
X024507Y015122D01*
X024072Y015221D02*
X023567Y015221D01*
X023666Y015122D02*
X023938Y015122D01*
X023889Y015024D02*
X023764Y015024D01*
X023681Y016600D02*
X022122Y016600D01*
X022221Y016698D02*
X023607Y016698D01*
X023577Y016797D02*
X022319Y016797D01*
X022418Y016895D02*
X023556Y016895D01*
X023457Y016994D02*
X023183Y016994D01*
X023261Y017092D02*
X023359Y017092D01*
X023600Y017388D02*
X025263Y017388D01*
X025165Y017486D02*
X023502Y017486D01*
X023699Y017289D02*
X025362Y017289D01*
X025460Y017191D02*
X023797Y017191D01*
X024066Y017092D02*
X025559Y017092D01*
X025657Y016994D02*
X024156Y016994D01*
X024196Y016895D02*
X025677Y016895D01*
X025707Y016797D02*
X024197Y016797D01*
X024166Y016698D02*
X025783Y016698D01*
X026379Y016600D02*
X024092Y016600D01*
X022784Y016994D02*
X022516Y016994D01*
X022024Y016501D02*
X026377Y016501D01*
X026405Y016403D02*
X021925Y016403D01*
X021827Y016304D02*
X026477Y016304D01*
X026677Y016206D02*
X021728Y016206D01*
X021630Y016107D02*
X026703Y016107D01*
X027200Y017388D02*
X027254Y017388D01*
X027274Y017486D02*
X027102Y017486D01*
X027003Y017585D02*
X027336Y017585D01*
X027499Y017683D02*
X026905Y017683D01*
X021853Y018668D02*
X016720Y018668D01*
X016818Y018570D02*
X021755Y018570D01*
X021656Y018471D02*
X016917Y018471D01*
X017185Y018373D02*
X021558Y018373D01*
X021459Y018274D02*
X017264Y018274D01*
X017297Y018176D02*
X021361Y018176D01*
X021262Y018077D02*
X017297Y018077D01*
X017258Y017979D02*
X021164Y017979D01*
X021065Y017880D02*
X017172Y017880D01*
X016801Y017880D02*
X016672Y017880D01*
X016301Y017880D02*
X005568Y017880D01*
X005568Y017782D02*
X009349Y017782D01*
X009207Y017683D02*
X005568Y017683D01*
X005568Y017585D02*
X007145Y017585D01*
X007046Y017486D02*
X005568Y017486D01*
X005568Y017388D02*
X006948Y017388D01*
X006849Y017289D02*
X005568Y017289D01*
X005568Y017191D02*
X006751Y017191D01*
X006652Y017092D02*
X005568Y017092D01*
X005568Y016994D02*
X006554Y016994D01*
X006455Y016895D02*
X005568Y016895D01*
X005568Y016797D02*
X006357Y016797D01*
X006258Y016698D02*
X005568Y016698D01*
X005568Y016600D02*
X006160Y016600D01*
X006061Y016501D02*
X005568Y016501D01*
X005568Y016403D02*
X005981Y016403D01*
X005956Y016304D02*
X005568Y016304D01*
X005568Y016206D02*
X005956Y016206D01*
X005956Y016107D02*
X005568Y016107D01*
X005568Y016009D02*
X005956Y016009D01*
X005956Y015910D02*
X005568Y015910D01*
X005568Y015812D02*
X005956Y015812D01*
X005956Y015713D02*
X005568Y015713D01*
X005568Y015615D02*
X005956Y015615D01*
X005956Y015516D02*
X005568Y015516D01*
X005568Y015418D02*
X005956Y015418D01*
X005956Y015319D02*
X005568Y015319D01*
X005568Y015221D02*
X005956Y015221D01*
X005956Y015122D02*
X005568Y015122D01*
X005568Y015024D02*
X005956Y015024D01*
X005956Y014925D02*
X005568Y014925D01*
X005568Y014827D02*
X005956Y014827D01*
X005956Y014728D02*
X005568Y014728D01*
X005568Y014630D02*
X005956Y014630D01*
X005956Y014531D02*
X005568Y014531D01*
X005568Y014433D02*
X005956Y014433D01*
X005956Y014334D02*
X005568Y014334D01*
X005568Y014236D02*
X005956Y014236D01*
X005956Y014137D02*
X005568Y014137D01*
X005568Y014039D02*
X005956Y014039D01*
X005956Y013940D02*
X005568Y013940D01*
X005568Y013842D02*
X005956Y013842D01*
X005956Y013743D02*
X005568Y013743D01*
X005568Y013645D02*
X005956Y013645D01*
X005956Y013546D02*
X005568Y013546D01*
X005568Y013448D02*
X005956Y013448D01*
X005956Y013349D02*
X005568Y013349D01*
X005568Y013251D02*
X005956Y013251D01*
X005956Y013152D02*
X005568Y013152D01*
X005568Y013054D02*
X005956Y013054D01*
X005956Y012955D02*
X005568Y012955D01*
X005568Y012857D02*
X005956Y012857D01*
X005956Y012758D02*
X005568Y012758D01*
X005568Y012660D02*
X005956Y012660D01*
X005956Y012561D02*
X005568Y012561D01*
X005568Y012463D02*
X005956Y012463D01*
X005956Y012364D02*
X005568Y012364D01*
X005568Y012266D02*
X005956Y012266D01*
X005956Y012167D02*
X005568Y012167D01*
X005568Y012069D02*
X005956Y012069D01*
X005956Y011970D02*
X005568Y011970D01*
X005568Y011872D02*
X005956Y011872D01*
X005956Y011773D02*
X005568Y011773D01*
X005568Y011675D02*
X005956Y011675D01*
X005956Y011576D02*
X005568Y011576D01*
X005568Y011478D02*
X005956Y011478D01*
X005956Y011379D02*
X005568Y011379D01*
X005568Y011281D02*
X005956Y011281D01*
X005956Y011182D02*
X005568Y011182D01*
X005568Y011084D02*
X005972Y011084D01*
X006041Y010985D02*
X005568Y010985D01*
X005568Y010887D02*
X006139Y010887D01*
X006238Y010788D02*
X005568Y010788D01*
X005568Y010690D02*
X006336Y010690D01*
X006435Y010591D02*
X005568Y010591D01*
X005568Y010493D02*
X006533Y010493D01*
X006632Y010394D02*
X005568Y010394D01*
X005568Y010296D02*
X006730Y010296D01*
X006829Y010197D02*
X005568Y010197D01*
X005568Y010099D02*
X006927Y010099D01*
X007026Y010000D02*
X005568Y010000D01*
X005568Y009902D02*
X007124Y009902D01*
X007223Y009803D02*
X005568Y009803D01*
X005568Y009705D02*
X007321Y009705D01*
X007420Y009606D02*
X005568Y009606D01*
X005568Y009508D02*
X007518Y009508D01*
X007617Y009409D02*
X005568Y009409D01*
X005568Y009311D02*
X007715Y009311D01*
X007814Y009212D02*
X005568Y009212D01*
X005568Y009114D02*
X007912Y009114D01*
X008011Y009015D02*
X005568Y009015D01*
X005568Y008917D02*
X008109Y008917D01*
X008208Y008818D02*
X005568Y008818D01*
X005568Y008720D02*
X008306Y008720D01*
X008405Y008621D02*
X005568Y008621D01*
X005568Y008523D02*
X008503Y008523D01*
X008602Y008424D02*
X005568Y008424D01*
X007437Y010296D02*
X017455Y010296D01*
X017357Y010394D02*
X007339Y010394D01*
X007240Y010493D02*
X017258Y010493D01*
X017160Y010591D02*
X016383Y010591D01*
X016463Y010690D02*
X016891Y010690D01*
X016811Y010788D02*
X016497Y010788D01*
X016509Y010887D02*
X016777Y010887D01*
X016777Y010985D02*
X016608Y010985D01*
X016706Y011084D02*
X016814Y011084D01*
X015867Y011182D02*
X015639Y011182D01*
X015599Y011084D02*
X006649Y011084D01*
X006551Y011182D02*
X015410Y011182D01*
X015275Y011281D02*
X006456Y011281D01*
X006456Y011379D02*
X015226Y011379D01*
X015214Y011478D02*
X006456Y011478D01*
X006456Y011576D02*
X015024Y011576D01*
X014881Y011675D02*
X006456Y011675D01*
X006456Y011773D02*
X014829Y011773D01*
X014814Y011872D02*
X006456Y011872D01*
X006456Y011970D02*
X014830Y011970D01*
X014884Y012069D02*
X006456Y012069D01*
X006456Y012167D02*
X015031Y012167D01*
X015218Y012167D02*
X016044Y012167D01*
X016027Y012266D02*
X006456Y012266D01*
X006456Y012364D02*
X016040Y012364D01*
X016091Y012463D02*
X006456Y012463D01*
X006456Y012561D02*
X007368Y012561D01*
X007420Y012539D02*
X007550Y012539D01*
X007670Y012589D01*
X007762Y012681D01*
X007812Y012801D01*
X007812Y012932D01*
X007762Y013052D01*
X007670Y013144D01*
X007550Y013194D01*
X007420Y013194D01*
X007300Y013144D01*
X007208Y013052D01*
X007158Y012932D01*
X007158Y012801D01*
X007208Y012681D01*
X007300Y012589D01*
X007420Y012539D01*
X007602Y012561D02*
X016147Y012561D01*
X016147Y012660D02*
X007741Y012660D01*
X007794Y012758D02*
X016147Y012758D01*
X016147Y012857D02*
X007812Y012857D01*
X007803Y012955D02*
X016186Y012955D01*
X016284Y013054D02*
X007761Y013054D01*
X007651Y013152D02*
X016383Y013152D01*
X016481Y013251D02*
X006456Y013251D01*
X006456Y013349D02*
X016580Y013349D01*
X016678Y013448D02*
X006456Y013448D01*
X006456Y013546D02*
X016777Y013546D01*
X016875Y013645D02*
X006456Y013645D01*
X006456Y013743D02*
X016897Y013743D01*
X016897Y013842D02*
X016394Y013842D01*
X016348Y013823D02*
X016462Y013870D01*
X016549Y013957D01*
X016597Y014071D01*
X016597Y014160D01*
X018869Y016433D01*
X018948Y016433D01*
X019011Y016370D01*
X019125Y016323D01*
X019248Y016323D01*
X019362Y016370D01*
X019449Y016457D01*
X019497Y016571D01*
X019497Y016694D01*
X019449Y016808D01*
X019362Y016895D01*
X019248Y016943D01*
X019125Y016943D01*
X019011Y016895D01*
X007162Y016895D01*
X007064Y016797D02*
X018668Y016797D01*
X018704Y016833D02*
X016314Y014443D01*
X016225Y014443D01*
X016111Y014395D01*
X016024Y014308D01*
X015977Y014194D01*
X015977Y014071D01*
X016024Y013957D01*
X016111Y013870D01*
X016225Y013823D01*
X016348Y013823D01*
X016179Y013842D02*
X006456Y013842D01*
X006456Y013940D02*
X016041Y013940D01*
X015990Y014039D02*
X006456Y014039D01*
X006456Y014137D02*
X015977Y014137D01*
X015994Y014236D02*
X006456Y014236D01*
X006456Y014334D02*
X007287Y014334D01*
X007300Y014321D02*
X007420Y014272D01*
X007550Y014272D01*
X007670Y014321D01*
X007762Y014413D01*
X007812Y014534D01*
X007812Y014664D01*
X007762Y014784D01*
X007670Y014876D01*
X007550Y014926D01*
X007420Y014926D01*
X007300Y014876D01*
X007208Y014784D01*
X007158Y014664D01*
X007158Y014534D01*
X007208Y014413D01*
X007300Y014321D01*
X007200Y014433D02*
X006456Y014433D01*
X006456Y014531D02*
X007159Y014531D01*
X007158Y014630D02*
X006456Y014630D01*
X006456Y014728D02*
X007184Y014728D01*
X007250Y014827D02*
X006456Y014827D01*
X006456Y014925D02*
X007418Y014925D01*
X007552Y014925D02*
X016796Y014925D01*
X016698Y014827D02*
X007720Y014827D01*
X007786Y014728D02*
X016599Y014728D01*
X016501Y014630D02*
X007812Y014630D01*
X007811Y014531D02*
X016402Y014531D01*
X016200Y014433D02*
X007770Y014433D01*
X007683Y014334D02*
X016050Y014334D01*
X016287Y014133D02*
X018787Y016633D01*
X019187Y016633D01*
X019468Y016501D02*
X019686Y016501D01*
X019588Y016403D02*
X019395Y016403D01*
X019489Y016304D02*
X018741Y016304D01*
X018839Y016403D02*
X018978Y016403D01*
X018642Y016206D02*
X019391Y016206D01*
X019292Y016107D02*
X018544Y016107D01*
X018445Y016009D02*
X019194Y016009D01*
X019095Y015910D02*
X018347Y015910D01*
X018248Y015812D02*
X018997Y015812D01*
X018898Y015713D02*
X018150Y015713D01*
X018051Y015615D02*
X018800Y015615D01*
X018701Y015516D02*
X017953Y015516D01*
X017854Y015418D02*
X018603Y015418D01*
X018504Y015319D02*
X017756Y015319D01*
X017657Y015221D02*
X018406Y015221D01*
X018307Y015122D02*
X017559Y015122D01*
X017460Y015024D02*
X018209Y015024D01*
X018110Y014925D02*
X017362Y014925D01*
X017263Y014827D02*
X018012Y014827D01*
X017913Y014728D02*
X017165Y014728D01*
X017066Y014630D02*
X017415Y014630D01*
X017316Y014531D02*
X016968Y014531D01*
X016869Y014433D02*
X017218Y014433D01*
X017119Y014334D02*
X016771Y014334D01*
X016672Y014236D02*
X017021Y014236D01*
X016922Y014137D02*
X016597Y014137D01*
X016583Y014039D02*
X016897Y014039D01*
X016897Y013940D02*
X016532Y013940D01*
X016895Y015024D02*
X006456Y015024D01*
X006456Y015122D02*
X016993Y015122D01*
X017092Y015221D02*
X006456Y015221D01*
X006456Y015319D02*
X017190Y015319D01*
X017289Y015418D02*
X006456Y015418D01*
X006456Y015516D02*
X017387Y015516D01*
X017486Y015615D02*
X006456Y015615D01*
X006456Y015713D02*
X017584Y015713D01*
X017683Y015812D02*
X006456Y015812D01*
X006456Y015910D02*
X017781Y015910D01*
X017880Y016009D02*
X006456Y016009D01*
X006456Y016107D02*
X017978Y016107D01*
X018077Y016206D02*
X006473Y016206D01*
X006571Y016304D02*
X018175Y016304D01*
X018274Y016403D02*
X006670Y016403D01*
X006768Y016501D02*
X018372Y016501D01*
X018471Y016600D02*
X006867Y016600D01*
X006965Y016698D02*
X018569Y016698D01*
X018704Y016833D02*
X018869Y016833D01*
X018948Y016833D01*
X019011Y016895D01*
X019363Y016895D02*
X020080Y016895D01*
X019982Y016797D02*
X019454Y016797D01*
X019495Y016698D02*
X019883Y016698D01*
X019785Y016600D02*
X019497Y016600D01*
X020179Y016994D02*
X007261Y016994D01*
X007359Y017092D02*
X009329Y017092D01*
X009644Y017092D02*
X020277Y017092D01*
X020376Y017191D02*
X009775Y017191D01*
X009833Y017289D02*
X020474Y017289D01*
X020573Y017388D02*
X009862Y017388D01*
X009862Y017486D02*
X020671Y017486D01*
X020770Y017585D02*
X009830Y017585D01*
X009767Y017683D02*
X020868Y017683D01*
X020967Y017782D02*
X009624Y017782D01*
X005568Y017979D02*
X016215Y017979D01*
X016177Y018077D02*
X005568Y018077D01*
X005568Y018176D02*
X016175Y018176D01*
X016077Y018274D02*
X005568Y018274D01*
X005568Y018373D02*
X015978Y018373D01*
X015880Y018471D02*
X005568Y018471D01*
X005568Y018570D02*
X015781Y018570D01*
X015683Y018668D02*
X005568Y018668D01*
X008324Y022510D02*
X034008Y022510D01*
X034008Y022608D02*
X008324Y022608D01*
X008324Y022707D02*
X034008Y022707D01*
X034008Y022805D02*
X008324Y022805D01*
X008324Y022904D02*
X034008Y022904D01*
X034008Y023002D02*
X008324Y023002D01*
X008324Y023101D02*
X034008Y023101D01*
X034008Y023199D02*
X008324Y023199D01*
X010471Y023298D02*
X034008Y023298D01*
X034008Y023396D02*
X010489Y023396D01*
X010489Y023495D02*
X034062Y023495D01*
X034796Y023593D02*
X010489Y023593D01*
X010489Y023692D02*
X034796Y023692D01*
X034796Y023790D02*
X010489Y023790D01*
X010489Y023889D02*
X034796Y023889D01*
X034796Y023987D02*
X010489Y023987D01*
X010489Y024086D02*
X034796Y024086D01*
X034796Y024184D02*
X010489Y024184D01*
X010489Y024283D02*
X034796Y024283D01*
X034796Y024381D02*
X010489Y024381D01*
X010489Y024480D02*
X034796Y024480D01*
X034796Y024578D02*
X010489Y024578D01*
X010489Y024677D02*
X034796Y024677D01*
X034796Y024775D02*
X010489Y024775D01*
X010489Y024874D02*
X034796Y024874D01*
X034796Y024972D02*
X010489Y024972D01*
X010489Y025071D02*
X034796Y025071D01*
X034796Y025169D02*
X010489Y025169D01*
X010434Y025268D02*
X034796Y025268D01*
X034796Y025366D02*
X007648Y025366D01*
X007571Y025465D02*
X034796Y025465D01*
X034796Y025563D02*
X007539Y025563D01*
X007537Y025662D02*
X034796Y025662D01*
X034796Y025760D02*
X007537Y025760D01*
X007537Y025859D02*
X034796Y025859D01*
X034796Y025957D02*
X007537Y025957D01*
X007537Y026056D02*
X034796Y026056D01*
X034796Y026154D02*
X007551Y026154D01*
X007584Y026253D02*
X034796Y026253D01*
X034796Y026351D02*
X007617Y026351D01*
X007650Y026450D02*
X034796Y026450D01*
X034796Y026548D02*
X007683Y026548D01*
X007715Y026647D02*
X034796Y026647D01*
X034796Y026745D02*
X007748Y026745D01*
X007781Y026844D02*
X034796Y026844D01*
X034796Y026942D02*
X007814Y026942D01*
X007847Y027041D02*
X034796Y027041D01*
X034796Y027139D02*
X007880Y027139D01*
X007912Y027238D02*
X012370Y027238D01*
X012355Y027336D02*
X007945Y027336D01*
X007978Y027435D02*
X012355Y027435D01*
X012355Y027533D02*
X008011Y027533D01*
X008044Y027632D02*
X012355Y027632D01*
X012355Y027730D02*
X008077Y027730D01*
X008109Y027829D02*
X012355Y027829D01*
X012355Y027927D02*
X008142Y027927D01*
X008175Y028026D02*
X012355Y028026D01*
X012355Y028124D02*
X008208Y028124D01*
X008241Y028223D02*
X012355Y028223D01*
X012355Y028321D02*
X008274Y028321D01*
X008306Y028420D02*
X012355Y028420D01*
X012355Y028518D02*
X008339Y028518D01*
X008372Y028617D02*
X012355Y028617D01*
X012355Y028715D02*
X008405Y028715D01*
X008438Y028814D02*
X012355Y028814D01*
X012355Y028912D02*
X008471Y028912D01*
X008503Y029011D02*
X012355Y029011D01*
X012355Y029109D02*
X008536Y029109D01*
X008569Y029208D02*
X012355Y029208D01*
X012355Y029306D02*
X008602Y029306D01*
X008635Y029405D02*
X012354Y029405D01*
X012294Y029503D02*
X008668Y029503D01*
X008700Y029602D02*
X010597Y029602D01*
X010582Y029700D02*
X008733Y029700D01*
X008766Y029799D02*
X010615Y029799D01*
X010648Y029897D02*
X008799Y029897D01*
X008832Y029996D02*
X010681Y029996D01*
X010714Y030094D02*
X008865Y030094D01*
X008898Y030193D02*
X010747Y030193D01*
X010779Y030291D02*
X008930Y030291D01*
X008963Y030390D02*
X010812Y030390D01*
X010845Y030488D02*
X008996Y030488D01*
X009029Y030587D02*
X010878Y030587D01*
X010911Y030685D02*
X009062Y030685D01*
X009095Y030784D02*
X010944Y030784D01*
X010976Y030882D02*
X009127Y030882D01*
X009160Y030981D02*
X011009Y030981D01*
X011042Y031079D02*
X009193Y031079D01*
X009226Y031178D02*
X011075Y031178D01*
X011108Y031276D02*
X009259Y031276D01*
X009292Y031375D02*
X011141Y031375D01*
X011173Y031473D02*
X009324Y031473D01*
X009357Y031572D02*
X011206Y031572D01*
X011239Y031670D02*
X009390Y031670D01*
X009423Y031769D02*
X011272Y031769D01*
X011305Y031867D02*
X009456Y031867D01*
X009489Y031966D02*
X011338Y031966D01*
X011370Y032064D02*
X009521Y032064D01*
X009554Y032163D02*
X011403Y032163D01*
X011436Y032261D02*
X009587Y032261D01*
X009620Y032360D02*
X011469Y032360D01*
X011502Y032458D02*
X009653Y032458D01*
X009686Y032557D02*
X011535Y032557D01*
X011567Y032655D02*
X009718Y032655D01*
X009751Y032754D02*
X011600Y032754D01*
X011633Y032852D02*
X009784Y032852D01*
X009782Y032845D02*
X009782Y032845D01*
X009823Y032951D02*
X011666Y032951D01*
X011679Y033049D02*
X009945Y033049D01*
X014180Y030094D02*
X016029Y030094D01*
X016062Y030193D02*
X014212Y030193D01*
X014245Y030291D02*
X016094Y030291D01*
X016127Y030390D02*
X014278Y030390D01*
X014311Y030488D02*
X016160Y030488D01*
X016193Y030587D02*
X014344Y030587D01*
X014377Y030685D02*
X016226Y030685D01*
X016259Y030784D02*
X014409Y030784D01*
X014442Y030882D02*
X016291Y030882D01*
X016324Y030981D02*
X014475Y030981D01*
X014508Y031079D02*
X016357Y031079D01*
X016390Y031178D02*
X014541Y031178D01*
X014574Y031276D02*
X016423Y031276D01*
X016456Y031375D02*
X014606Y031375D01*
X014639Y031473D02*
X016488Y031473D01*
X016521Y031572D02*
X014672Y031572D01*
X014705Y031670D02*
X016554Y031670D01*
X016587Y031769D02*
X014738Y031769D01*
X014771Y031867D02*
X016620Y031867D01*
X016653Y031966D02*
X014803Y031966D01*
X014836Y032064D02*
X016685Y032064D01*
X016718Y032163D02*
X014869Y032163D01*
X014902Y032261D02*
X016751Y032261D01*
X016784Y032360D02*
X014935Y032360D01*
X014968Y032458D02*
X016817Y032458D01*
X016850Y032557D02*
X015000Y032557D01*
X015033Y032655D02*
X016882Y032655D01*
X016915Y032754D02*
X015066Y032754D01*
X015099Y032852D02*
X016948Y032852D01*
X016968Y032951D02*
X015132Y032951D01*
X015123Y032924D02*
X015123Y032924D01*
X015195Y033049D02*
X016909Y033049D01*
X018592Y032655D02*
X018688Y032830D01*
X018711Y032852D02*
X031385Y032852D01*
X031333Y032951D02*
X018816Y032951D01*
X019009Y033049D02*
X031197Y033049D01*
X031500Y032557D02*
X018573Y032557D01*
X018554Y032458D02*
X031538Y032458D01*
X031576Y032360D02*
X018560Y032360D01*
X018560Y032261D02*
X031615Y032261D01*
X031653Y032163D02*
X018560Y032163D01*
X018560Y032064D02*
X031691Y032064D01*
X031730Y031966D02*
X018560Y031966D01*
X018560Y031867D02*
X031768Y031867D01*
X031806Y031769D02*
X018560Y031769D01*
X018560Y031670D02*
X031845Y031670D01*
X031883Y031572D02*
X021483Y031572D01*
X021608Y031520D02*
X021321Y031639D01*
X021011Y031639D01*
X020724Y031520D01*
X020505Y031300D01*
X020386Y031014D01*
X020386Y030704D01*
X020505Y030417D01*
X020724Y030197D01*
X021011Y030079D01*
X021321Y030079D01*
X021608Y030197D01*
X021827Y030417D01*
X021946Y030704D01*
X021946Y031014D01*
X021827Y031300D01*
X021608Y031520D01*
X021655Y031473D02*
X031921Y031473D01*
X031959Y031375D02*
X021753Y031375D01*
X021837Y031276D02*
X031998Y031276D01*
X032036Y031178D02*
X021878Y031178D01*
X021919Y031079D02*
X032074Y031079D01*
X032113Y030981D02*
X021946Y030981D01*
X021946Y030882D02*
X032151Y030882D01*
X032189Y030784D02*
X021946Y030784D01*
X021938Y030685D02*
X032228Y030685D01*
X032266Y030587D02*
X021898Y030587D01*
X021857Y030488D02*
X032304Y030488D01*
X032342Y030390D02*
X021800Y030390D01*
X021702Y030291D02*
X032381Y030291D01*
X032419Y030193D02*
X021596Y030193D01*
X021358Y030094D02*
X032457Y030094D01*
X032496Y029996D02*
X018560Y029996D01*
X018560Y030094D02*
X020974Y030094D01*
X020736Y030193D02*
X018560Y030193D01*
X018560Y030291D02*
X020631Y030291D01*
X020532Y030390D02*
X018560Y030390D01*
X018560Y030488D02*
X020475Y030488D01*
X020435Y030587D02*
X018560Y030587D01*
X018560Y030685D02*
X020394Y030685D01*
X020386Y030784D02*
X018560Y030784D01*
X018560Y030882D02*
X020386Y030882D01*
X020386Y030981D02*
X018560Y030981D01*
X018560Y031079D02*
X020413Y031079D01*
X020454Y031178D02*
X018560Y031178D01*
X018560Y031276D02*
X020495Y031276D01*
X020579Y031375D02*
X018560Y031375D01*
X018560Y031473D02*
X020678Y031473D01*
X020849Y031572D02*
X018560Y031572D01*
X018560Y029897D02*
X032534Y029897D01*
X032572Y029799D02*
X018560Y029799D01*
X018560Y029700D02*
X032611Y029700D01*
X032644Y029602D02*
X018560Y029602D01*
X018560Y029503D02*
X034796Y029503D01*
X034796Y029405D02*
X018560Y029405D01*
X018560Y029306D02*
X034796Y029306D01*
X034796Y029208D02*
X018560Y029208D01*
X018560Y029109D02*
X034796Y029109D01*
X034796Y029011D02*
X018560Y029011D01*
X018560Y028912D02*
X034796Y028912D01*
X034796Y028814D02*
X018560Y028814D01*
X018560Y028715D02*
X034796Y028715D01*
X034796Y028617D02*
X018560Y028617D01*
X018560Y028518D02*
X034796Y028518D01*
X034796Y028420D02*
X018560Y028420D01*
X018560Y028321D02*
X034796Y028321D01*
X034796Y028223D02*
X018560Y028223D01*
X018560Y028124D02*
X034796Y028124D01*
X034796Y028026D02*
X018560Y028026D01*
X018560Y027927D02*
X034796Y027927D01*
X034796Y027829D02*
X018560Y027829D01*
X018560Y027730D02*
X034796Y027730D01*
X034796Y027632D02*
X018560Y027632D01*
X018560Y027533D02*
X034796Y027533D01*
X034796Y027435D02*
X018560Y027435D01*
X018560Y027336D02*
X034796Y027336D01*
X034796Y027238D02*
X018545Y027238D01*
X017685Y027238D02*
X013230Y027238D01*
X013260Y027336D02*
X017670Y027336D01*
X017670Y027435D02*
X013293Y027435D01*
X013326Y027533D02*
X017670Y027533D01*
X017670Y027632D02*
X013359Y027632D01*
X013392Y027730D02*
X017670Y027730D01*
X017670Y027829D02*
X013424Y027829D01*
X013457Y027927D02*
X017670Y027927D01*
X017670Y028026D02*
X013490Y028026D01*
X013523Y028124D02*
X017670Y028124D01*
X017670Y028223D02*
X013556Y028223D01*
X013589Y028321D02*
X017670Y028321D01*
X017670Y028420D02*
X013621Y028420D01*
X013654Y028518D02*
X017670Y028518D01*
X017670Y028617D02*
X013687Y028617D01*
X013720Y028715D02*
X017670Y028715D01*
X017670Y028814D02*
X013753Y028814D01*
X013786Y028912D02*
X017670Y028912D01*
X017670Y029011D02*
X013818Y029011D01*
X013851Y029109D02*
X017670Y029109D01*
X017670Y029208D02*
X013884Y029208D01*
X013917Y029306D02*
X017670Y029306D01*
X017670Y029405D02*
X013950Y029405D01*
X013983Y029503D02*
X017662Y029503D01*
X015996Y029996D02*
X014147Y029996D01*
X014114Y029897D02*
X015963Y029897D01*
X015930Y029799D02*
X014081Y029799D01*
X014048Y029700D02*
X015897Y029700D01*
X015912Y029602D02*
X014015Y029602D01*
X014534Y022411D02*
X020212Y022411D01*
X020114Y022313D02*
X014632Y022313D01*
X014731Y022214D02*
X020015Y022214D01*
X019988Y022116D02*
X014758Y022116D01*
X021664Y022411D02*
X022212Y022411D01*
X022114Y022313D02*
X021762Y022313D01*
X021861Y022214D02*
X022015Y022214D01*
X021988Y022116D02*
X021888Y022116D01*
X032916Y029602D02*
X034796Y029602D01*
X034796Y029700D02*
X032933Y029700D01*
X032930Y029799D02*
X034796Y029799D01*
X034796Y029897D02*
X032930Y029897D01*
X032930Y029996D02*
X034796Y029996D01*
X034796Y030094D02*
X032930Y030094D01*
X032930Y030193D02*
X034796Y030193D01*
X034796Y030291D02*
X032930Y030291D01*
X032930Y030390D02*
X034796Y030390D01*
X034796Y030488D02*
X032930Y030488D01*
X032930Y030587D02*
X034796Y030587D01*
X034796Y030685D02*
X032930Y030685D01*
X032930Y030784D02*
X034796Y030784D01*
X034796Y030882D02*
X032930Y030882D01*
X032930Y030981D02*
X034796Y030981D01*
X034796Y031079D02*
X032930Y031079D01*
X032930Y031178D02*
X034796Y031178D01*
X034796Y031276D02*
X032930Y031276D01*
X032930Y031375D02*
X034796Y031375D01*
X034796Y031473D02*
X032930Y031473D01*
X032930Y031572D02*
X034796Y031572D01*
X034796Y031670D02*
X032930Y031670D01*
X032930Y031769D02*
X034796Y031769D01*
X034796Y031867D02*
X032930Y031867D01*
X032930Y031966D02*
X034796Y031966D01*
X034796Y032064D02*
X032930Y032064D01*
X032930Y032163D02*
X034796Y032163D01*
X034796Y032261D02*
X032930Y032261D01*
X032930Y032360D02*
X034796Y032360D01*
X034796Y032458D02*
X032930Y032458D01*
X032930Y032557D02*
X034796Y032557D01*
X034796Y032655D02*
X032930Y032655D01*
X032942Y032754D02*
X034796Y032754D01*
X034784Y032852D02*
X032983Y032852D01*
X033059Y032951D02*
X034738Y032951D01*
X034601Y033049D02*
X033224Y033049D01*
X034562Y033065D02*
X034562Y033065D01*
X034405Y013152D02*
X034305Y013152D01*
X034305Y013054D02*
X034405Y013054D01*
X034496Y012955D02*
X034214Y012955D01*
X034115Y012857D02*
X034595Y012857D01*
X035115Y012857D02*
X036764Y012857D01*
X036764Y012955D02*
X035214Y012955D01*
X035305Y013054D02*
X036764Y013054D01*
X036764Y013152D02*
X035305Y013152D01*
X035305Y012167D02*
X036764Y012167D01*
X036764Y012069D02*
X035305Y012069D01*
X035229Y011970D02*
X036764Y011970D01*
X036764Y011872D02*
X035130Y011872D01*
X035305Y011182D02*
X036764Y011182D01*
X036764Y011084D02*
X035305Y011084D01*
X035244Y010985D02*
X036764Y010985D01*
X036764Y010887D02*
X035145Y010887D01*
X034663Y010788D02*
X034047Y010788D01*
X034145Y010887D02*
X034565Y010887D01*
X034466Y010985D02*
X034244Y010985D01*
X034305Y011084D02*
X034405Y011084D01*
X034405Y011182D02*
X034305Y011182D01*
X034133Y010591D02*
X034577Y010591D01*
X034479Y010493D02*
X034232Y010493D01*
X034305Y010394D02*
X034405Y010394D01*
X034405Y010296D02*
X034305Y010296D01*
X035160Y009902D02*
X036764Y009902D01*
X036764Y010000D02*
X035259Y010000D01*
X036764Y008621D02*
X022600Y008621D01*
X022502Y008523D02*
X036764Y008523D01*
X036764Y008424D02*
X022403Y008424D01*
X022305Y008326D02*
X036764Y008326D01*
X036764Y008227D02*
X022206Y008227D01*
X022108Y008129D02*
X036764Y008129D01*
X036764Y008030D02*
X022009Y008030D01*
X021911Y007932D02*
X036764Y007932D01*
X036764Y007833D02*
X021812Y007833D01*
X021714Y007735D02*
X036764Y007735D01*
X036764Y007636D02*
X021615Y007636D01*
X021517Y007538D02*
X036764Y007538D01*
X036764Y007439D02*
X021418Y007439D01*
X021310Y005915D02*
X021047Y005651D01*
X021047Y005279D01*
X021310Y005015D01*
X021683Y005015D01*
X021947Y005279D01*
X021947Y005651D01*
X021683Y005915D01*
X021310Y005915D01*
X021259Y005863D02*
X014725Y005863D01*
X014684Y005765D02*
X021160Y005765D01*
X021062Y005666D02*
X014584Y005666D01*
X014252Y005666D02*
X008324Y005666D01*
X008324Y005568D02*
X021047Y005568D01*
X021047Y005469D02*
X008324Y005469D01*
X008324Y005371D02*
X021047Y005371D01*
X021053Y005272D02*
X008324Y005272D01*
X008324Y005174D02*
X021152Y005174D01*
X021250Y005075D02*
X008324Y005075D01*
X008324Y004977D02*
X021726Y004977D01*
X021743Y005075D02*
X021824Y005075D01*
X021842Y005174D02*
X021923Y005174D01*
X021940Y005272D02*
X022021Y005272D01*
X022047Y005298D02*
X021430Y004681D01*
X008324Y004681D01*
X008324Y004583D02*
X016261Y004583D01*
X016242Y004564D02*
X015178Y003500D01*
X014316Y003500D01*
X014254Y003561D01*
X014141Y003608D01*
X014018Y003608D01*
X013905Y003561D01*
X013818Y003474D01*
X013771Y003361D01*
X013771Y003238D01*
X013818Y003125D01*
X013905Y003038D01*
X014018Y002991D01*
X014141Y002991D01*
X014254Y003038D01*
X014316Y003100D01*
X015343Y003100D01*
X016525Y004281D01*
X020683Y004281D01*
X020572Y004170D01*
X019902Y003500D01*
X018253Y003500D01*
X018191Y003561D01*
X018078Y003608D01*
X017955Y003608D01*
X017842Y003561D01*
X017755Y003474D01*
X017708Y003361D01*
X017708Y003238D01*
X017755Y003125D01*
X017842Y003038D01*
X017955Y002991D01*
X018078Y002991D01*
X018191Y003038D01*
X018253Y003100D01*
X020068Y003100D01*
X020855Y003887D01*
X022202Y003887D01*
X023330Y005015D01*
X023683Y005015D01*
X023947Y005279D01*
X023947Y005651D01*
X023683Y005915D01*
X023310Y005915D01*
X023047Y005651D01*
X023047Y005298D01*
X022036Y004287D01*
X021602Y004287D01*
X022036Y004287D01*
X022135Y004386D02*
X021700Y004386D01*
X021799Y004484D02*
X022233Y004484D01*
X022332Y004583D02*
X021897Y004583D01*
X021996Y004681D02*
X022430Y004681D01*
X022529Y004780D02*
X022094Y004780D01*
X022193Y004878D02*
X022627Y004878D01*
X022726Y004977D02*
X022291Y004977D01*
X022330Y005015D02*
X022683Y005015D01*
X022947Y005279D01*
X022947Y005651D01*
X022683Y005915D01*
X022310Y005915D01*
X022047Y005651D01*
X022047Y005298D01*
X022047Y005371D02*
X021947Y005371D01*
X021947Y005469D02*
X022047Y005469D01*
X022047Y005568D02*
X021947Y005568D01*
X021932Y005666D02*
X022062Y005666D01*
X022160Y005765D02*
X021834Y005765D01*
X021735Y005863D02*
X022259Y005863D01*
X022497Y005465D02*
X021513Y004481D01*
X016442Y004481D01*
X015261Y003300D01*
X014080Y003300D01*
X013771Y003302D02*
X011568Y003302D01*
X011551Y003401D02*
X013787Y003401D01*
X013843Y003499D02*
X011534Y003499D01*
X011516Y003598D02*
X013993Y003598D01*
X014166Y003598D02*
X015276Y003598D01*
X015374Y003696D02*
X011499Y003696D01*
X011486Y003795D02*
X015473Y003795D01*
X015571Y003893D02*
X011482Y003893D01*
X011478Y003992D02*
X015670Y003992D01*
X015768Y004090D02*
X011474Y004090D01*
X011434Y004189D02*
X015867Y004189D01*
X015965Y004287D02*
X008324Y004287D01*
X008324Y004386D02*
X016064Y004386D01*
X016162Y004484D02*
X008324Y004484D01*
X008324Y004780D02*
X021529Y004780D01*
X021627Y004878D02*
X008324Y004878D01*
X008317Y005765D02*
X014152Y005765D01*
X014111Y005863D02*
X008310Y005863D01*
X008287Y005962D02*
X014108Y005962D01*
X014135Y006060D02*
X008265Y006060D01*
X008225Y006159D02*
X014206Y006159D01*
X014417Y006257D02*
X008188Y006257D01*
X008133Y006356D02*
X014516Y006356D01*
X014614Y006454D02*
X008059Y006454D01*
X007985Y006553D02*
X014713Y006553D01*
X014811Y006651D02*
X007888Y006651D01*
X007733Y010000D02*
X017751Y010000D01*
X017652Y010099D02*
X007634Y010099D01*
X007536Y010197D02*
X017554Y010197D01*
X015990Y010591D02*
X015983Y010591D01*
X015590Y010591D02*
X007142Y010591D01*
X007043Y010690D02*
X015510Y010690D01*
X015477Y010788D02*
X006945Y010788D01*
X006846Y010887D02*
X015477Y010887D01*
X015514Y010985D02*
X006748Y010985D01*
X006456Y012660D02*
X007229Y012660D01*
X007176Y012758D02*
X006456Y012758D01*
X006456Y012857D02*
X007158Y012857D01*
X007168Y012955D02*
X006456Y012955D01*
X006456Y013054D02*
X007209Y013054D01*
X007319Y013152D02*
X006456Y013152D01*
X014772Y005962D02*
X034045Y005962D01*
X034067Y006060D02*
X014871Y006060D01*
X014969Y006159D02*
X034107Y006159D01*
X034144Y006257D02*
X015068Y006257D01*
X015166Y006356D02*
X034200Y006356D01*
X034273Y006454D02*
X015265Y006454D01*
X015363Y006553D02*
X034347Y006553D01*
X034445Y006651D02*
X015462Y006651D01*
X015560Y006750D02*
X034572Y006750D01*
X034735Y006848D02*
X015659Y006848D01*
X015757Y006947D02*
X034983Y006947D01*
X034022Y005863D02*
X029735Y005863D01*
X029683Y005915D02*
X029310Y005915D01*
X029047Y005651D01*
X029047Y005279D01*
X029310Y005015D01*
X029683Y005015D01*
X029947Y005279D01*
X029947Y005651D01*
X029683Y005915D01*
X029834Y005765D02*
X034015Y005765D01*
X034008Y005666D02*
X029932Y005666D01*
X029947Y005568D02*
X034008Y005568D01*
X034008Y005469D02*
X029947Y005469D01*
X029947Y005371D02*
X034008Y005371D01*
X034008Y005272D02*
X029940Y005272D01*
X029842Y005174D02*
X034008Y005174D01*
X034008Y005075D02*
X029743Y005075D01*
X029250Y005075D02*
X028743Y005075D01*
X028683Y005015D02*
X028947Y005279D01*
X028947Y005415D01*
X028547Y005415D01*
X028547Y005515D01*
X028947Y005515D01*
X028947Y005651D01*
X028683Y005915D01*
X028547Y005915D01*
X028547Y005515D01*
X028447Y005515D01*
X028447Y005915D01*
X028310Y005915D01*
X028047Y005651D01*
X028047Y005515D01*
X028447Y005515D01*
X028447Y005415D01*
X028547Y005415D01*
X028547Y005015D01*
X028683Y005015D01*
X028547Y005075D02*
X028447Y005075D01*
X028447Y005015D02*
X028447Y005415D01*
X028047Y005415D01*
X028047Y005279D01*
X028310Y005015D01*
X028447Y005015D01*
X028447Y005174D02*
X028547Y005174D01*
X028547Y005272D02*
X028447Y005272D01*
X028447Y005371D02*
X028547Y005371D01*
X028547Y005469D02*
X029047Y005469D01*
X029047Y005371D02*
X028947Y005371D01*
X028940Y005272D02*
X029053Y005272D01*
X029152Y005174D02*
X028842Y005174D01*
X028947Y005568D02*
X029047Y005568D01*
X029062Y005666D02*
X028932Y005666D01*
X028834Y005765D02*
X029160Y005765D01*
X029259Y005863D02*
X028735Y005863D01*
X028547Y005863D02*
X028447Y005863D01*
X028447Y005765D02*
X028547Y005765D01*
X028547Y005666D02*
X028447Y005666D01*
X028447Y005568D02*
X028547Y005568D01*
X028447Y005469D02*
X027947Y005469D01*
X027947Y005371D02*
X028047Y005371D01*
X028053Y005272D02*
X027940Y005272D01*
X027947Y005279D02*
X027683Y005015D01*
X027310Y005015D01*
X027047Y005279D01*
X027047Y005651D01*
X027310Y005915D01*
X027683Y005915D01*
X027947Y005651D01*
X027947Y005279D01*
X027842Y005174D02*
X028152Y005174D01*
X028250Y005075D02*
X027743Y005075D01*
X027465Y004780D02*
X034008Y004780D01*
X034008Y004878D02*
X027367Y004878D01*
X027268Y004977D02*
X034008Y004977D01*
X034008Y004681D02*
X027564Y004681D01*
X027662Y004583D02*
X034008Y004583D01*
X034008Y004484D02*
X027761Y004484D01*
X027859Y004386D02*
X034008Y004386D01*
X034008Y004287D02*
X027958Y004287D01*
X028056Y004189D02*
X030898Y004189D01*
X030859Y004090D02*
X028155Y004090D01*
X028253Y003992D02*
X030854Y003992D01*
X030850Y003893D02*
X028352Y003893D01*
X028450Y003795D02*
X030846Y003795D01*
X030834Y003696D02*
X028549Y003696D01*
X028647Y003598D02*
X029741Y003598D01*
X029766Y003608D02*
X029653Y003561D01*
X029591Y003500D01*
X028745Y003500D01*
X026947Y005298D01*
X026947Y005651D01*
X026683Y005915D01*
X026310Y005915D01*
X026047Y005651D01*
X026047Y005279D01*
X026310Y005015D01*
X026664Y005015D01*
X028579Y003100D01*
X029591Y003100D01*
X029653Y003038D01*
X029766Y002991D01*
X029889Y002991D01*
X030002Y003038D01*
X030089Y003125D01*
X030136Y003238D01*
X030136Y003361D01*
X030089Y003474D01*
X030002Y003561D01*
X029889Y003608D01*
X029766Y003608D01*
X029914Y003598D02*
X030816Y003598D01*
X030799Y003499D02*
X030064Y003499D01*
X030120Y003401D02*
X030781Y003401D01*
X030764Y003302D02*
X030136Y003302D01*
X030122Y003204D02*
X030747Y003204D01*
X030729Y003105D02*
X030069Y003105D01*
X029926Y003007D02*
X030693Y003007D01*
X030657Y002908D02*
X011675Y002908D01*
X011639Y003007D02*
X013981Y003007D01*
X013838Y003105D02*
X011603Y003105D01*
X011586Y003204D02*
X013785Y003204D01*
X014178Y003007D02*
X017918Y003007D01*
X017775Y003105D02*
X015349Y003105D01*
X015447Y003204D02*
X017723Y003204D01*
X017708Y003302D02*
X015546Y003302D01*
X015644Y003401D02*
X017724Y003401D01*
X017780Y003499D02*
X015743Y003499D01*
X015841Y003598D02*
X017930Y003598D01*
X018103Y003598D02*
X020000Y003598D01*
X020099Y003696D02*
X015940Y003696D01*
X016038Y003795D02*
X020197Y003795D01*
X020296Y003893D02*
X016137Y003893D01*
X016235Y003992D02*
X020394Y003992D01*
X020493Y004090D02*
X016334Y004090D01*
X016432Y004189D02*
X020591Y004189D01*
X020772Y004087D02*
X022119Y004087D01*
X023497Y005465D01*
X023947Y005469D02*
X024047Y005469D01*
X024047Y005371D02*
X023947Y005371D01*
X023940Y005272D02*
X024021Y005272D01*
X024047Y005298D02*
X022249Y003500D01*
X022190Y003500D01*
X022128Y003561D01*
X022015Y003608D01*
X021892Y003608D01*
X021779Y003561D01*
X021692Y003474D01*
X021645Y003361D01*
X021645Y003238D01*
X021692Y003125D01*
X021779Y003038D01*
X021892Y002991D01*
X022015Y002991D01*
X022128Y003038D01*
X022190Y003100D01*
X022414Y003100D01*
X024330Y005015D01*
X024683Y005015D01*
X024947Y005279D01*
X024947Y005651D01*
X024683Y005915D01*
X024310Y005915D01*
X024047Y005651D01*
X024047Y005298D01*
X023923Y005174D02*
X023842Y005174D01*
X023824Y005075D02*
X023743Y005075D01*
X023726Y004977D02*
X023291Y004977D01*
X023193Y004878D02*
X023627Y004878D01*
X023529Y004780D02*
X023094Y004780D01*
X022996Y004681D02*
X023430Y004681D01*
X023332Y004583D02*
X022897Y004583D01*
X022799Y004484D02*
X023233Y004484D01*
X023135Y004386D02*
X022700Y004386D01*
X022602Y004287D02*
X023036Y004287D01*
X022938Y004189D02*
X022503Y004189D01*
X022405Y004090D02*
X022839Y004090D01*
X022741Y003992D02*
X022306Y003992D01*
X022208Y003893D02*
X022642Y003893D01*
X022544Y003795D02*
X020763Y003795D01*
X020664Y003696D02*
X022445Y003696D01*
X022347Y003598D02*
X022040Y003598D01*
X021867Y003598D02*
X020566Y003598D01*
X020467Y003499D02*
X021717Y003499D01*
X021662Y003401D02*
X020369Y003401D01*
X020270Y003302D02*
X021645Y003302D01*
X021660Y003204D02*
X020172Y003204D01*
X020073Y003105D02*
X021712Y003105D01*
X021855Y003007D02*
X018115Y003007D01*
X018017Y003300D02*
X019985Y003300D01*
X020772Y004087D01*
X021602Y004287D02*
X022330Y005015D01*
X022743Y005075D02*
X022824Y005075D01*
X022842Y005174D02*
X022923Y005174D01*
X022940Y005272D02*
X023021Y005272D01*
X023047Y005371D02*
X022947Y005371D01*
X022947Y005469D02*
X023047Y005469D01*
X023047Y005568D02*
X022947Y005568D01*
X022932Y005666D02*
X023062Y005666D01*
X023160Y005765D02*
X022834Y005765D01*
X022735Y005863D02*
X023259Y005863D01*
X023735Y005863D02*
X024259Y005863D01*
X024160Y005765D02*
X023834Y005765D01*
X023932Y005666D02*
X024062Y005666D01*
X024047Y005568D02*
X023947Y005568D01*
X024497Y005465D02*
X022331Y003300D01*
X021954Y003300D01*
X022052Y003007D02*
X025792Y003007D01*
X025829Y002991D02*
X025952Y002991D01*
X026065Y003038D01*
X026152Y003125D01*
X026199Y003238D01*
X026199Y003361D01*
X026152Y003474D01*
X026091Y003536D01*
X026091Y003776D01*
X025697Y004170D01*
X025697Y005029D01*
X025947Y005279D01*
X025947Y005651D01*
X025683Y005915D01*
X025310Y005915D01*
X025047Y005651D01*
X025047Y005279D01*
X025297Y005029D01*
X025297Y004004D01*
X025414Y003887D01*
X025691Y003610D01*
X025691Y003536D01*
X025629Y003474D01*
X025582Y003361D01*
X025582Y003238D01*
X025629Y003125D01*
X025716Y003038D01*
X025829Y002991D01*
X025989Y003007D02*
X029729Y003007D01*
X029828Y003300D02*
X028662Y003300D01*
X026497Y005465D01*
X026947Y005469D02*
X027047Y005469D01*
X027047Y005371D02*
X026947Y005371D01*
X026973Y005272D02*
X027053Y005272D01*
X027071Y005174D02*
X027152Y005174D01*
X027170Y005075D02*
X027250Y005075D01*
X026899Y004780D02*
X025697Y004780D01*
X025697Y004878D02*
X026801Y004878D01*
X026702Y004977D02*
X025697Y004977D01*
X025743Y005075D02*
X026250Y005075D01*
X026152Y005174D02*
X025842Y005174D01*
X025940Y005272D02*
X026053Y005272D01*
X026047Y005371D02*
X025947Y005371D01*
X025947Y005469D02*
X026047Y005469D01*
X026047Y005568D02*
X025947Y005568D01*
X025932Y005666D02*
X026062Y005666D01*
X026160Y005765D02*
X025834Y005765D01*
X025735Y005863D02*
X026259Y005863D01*
X025497Y005465D02*
X025497Y004087D01*
X025891Y003693D01*
X025891Y003300D01*
X026199Y003302D02*
X028377Y003302D01*
X028475Y003204D02*
X026185Y003204D01*
X026132Y003105D02*
X028574Y003105D01*
X028278Y003401D02*
X026183Y003401D01*
X026127Y003499D02*
X028180Y003499D01*
X028081Y003598D02*
X026091Y003598D01*
X026091Y003696D02*
X027983Y003696D01*
X027884Y003795D02*
X026072Y003795D01*
X025974Y003893D02*
X027786Y003893D01*
X027687Y003992D02*
X025875Y003992D01*
X025777Y004090D02*
X027589Y004090D01*
X027490Y004189D02*
X025697Y004189D01*
X025697Y004287D02*
X027392Y004287D01*
X027293Y004386D02*
X025697Y004386D01*
X025697Y004484D02*
X027195Y004484D01*
X027096Y004583D02*
X025697Y004583D01*
X025697Y004681D02*
X026998Y004681D01*
X026947Y005568D02*
X027047Y005568D01*
X027062Y005666D02*
X026932Y005666D01*
X026834Y005765D02*
X027160Y005765D01*
X027259Y005863D02*
X026735Y005863D01*
X027735Y005863D02*
X028259Y005863D01*
X028160Y005765D02*
X027834Y005765D01*
X027932Y005666D02*
X028062Y005666D01*
X028047Y005568D02*
X027947Y005568D01*
X025691Y003598D02*
X022912Y003598D01*
X023011Y003696D02*
X025605Y003696D01*
X025507Y003795D02*
X023109Y003795D01*
X023208Y003893D02*
X025408Y003893D01*
X025310Y003992D02*
X023306Y003992D01*
X023405Y004090D02*
X025297Y004090D01*
X025297Y004189D02*
X023503Y004189D01*
X023602Y004287D02*
X025297Y004287D01*
X025297Y004386D02*
X023700Y004386D01*
X023799Y004484D02*
X025297Y004484D01*
X025297Y004583D02*
X023897Y004583D01*
X023996Y004681D02*
X025297Y004681D01*
X025297Y004780D02*
X024094Y004780D01*
X024193Y004878D02*
X025297Y004878D01*
X025297Y004977D02*
X024291Y004977D01*
X024743Y005075D02*
X025250Y005075D01*
X025152Y005174D02*
X024842Y005174D01*
X024940Y005272D02*
X025053Y005272D01*
X025047Y005371D02*
X024947Y005371D01*
X024947Y005469D02*
X025047Y005469D01*
X025047Y005568D02*
X024947Y005568D01*
X024932Y005666D02*
X025062Y005666D01*
X025160Y005765D02*
X024834Y005765D01*
X024735Y005863D02*
X025259Y005863D01*
X025654Y003499D02*
X022814Y003499D01*
X022715Y003401D02*
X025599Y003401D01*
X025582Y003302D02*
X022617Y003302D01*
X022518Y003204D02*
X025597Y003204D01*
X025649Y003105D02*
X022420Y003105D01*
X021430Y004681D02*
X016359Y004681D01*
X016242Y004564D01*
X015856Y007045D02*
X036764Y007045D01*
X036764Y007144D02*
X015954Y007144D01*
X016053Y007242D02*
X036764Y007242D01*
X036764Y007341D02*
X016151Y007341D01*
X015232Y011576D02*
X015224Y011576D01*
X011711Y002810D02*
X030621Y002810D01*
X030586Y002711D02*
X011747Y002711D01*
X011783Y002613D02*
X030550Y002613D01*
X030514Y002514D02*
X011818Y002514D01*
X011869Y002416D02*
X030463Y002416D01*
X030406Y002317D02*
X011926Y002317D01*
X011983Y002219D02*
X030349Y002219D01*
X030292Y002120D02*
X012040Y002120D01*
X012097Y002022D02*
X030235Y002022D01*
X030178Y001923D02*
X012154Y001923D01*
X012234Y001825D02*
X030098Y001825D01*
X030015Y001726D02*
X012317Y001726D01*
X012400Y001628D02*
X029933Y001628D01*
X029850Y001529D02*
X012482Y001529D01*
X012565Y001431D02*
X029767Y001431D01*
X029657Y001332D02*
X012675Y001332D01*
X012792Y001234D02*
X029540Y001234D01*
X029423Y001135D02*
X012910Y001135D01*
X013027Y001037D02*
X029305Y001037D01*
X029163Y000938D02*
X013170Y000938D01*
X013340Y000840D02*
X028992Y000840D01*
X028821Y000741D02*
X013511Y000741D01*
X013694Y000643D02*
X028638Y000643D01*
X028368Y000544D02*
X013965Y000544D01*
X014235Y000446D02*
X028097Y000446D01*
X027587Y000347D02*
X014746Y000347D01*
D13*
X010536Y004874D03*
X009355Y004874D03*
X008568Y004481D03*
X010480Y006996D03*
X011268Y007586D03*
X011858Y006799D03*
X012449Y007389D03*
X014418Y005933D03*
X015524Y005533D03*
X017024Y006039D03*
X019028Y006433D03*
X020302Y006517D03*
X019387Y008233D03*
X019387Y009733D03*
X019387Y010633D03*
X018387Y010933D03*
X018024Y010733D03*
X017587Y010933D03*
X017087Y010933D03*
X016187Y010833D03*
X015787Y010833D03*
X015287Y011033D03*
X015524Y011470D03*
X015124Y011870D03*
X015787Y012608D03*
X016337Y012270D03*
X016674Y012695D03*
X017124Y012333D03*
X016687Y013733D03*
X016287Y014133D03*
X015787Y014433D03*
X015787Y013433D03*
X013696Y014573D03*
X013043Y013462D03*
X011168Y013462D03*
X010424Y014524D03*
X009463Y015589D03*
X009981Y016074D03*
X011136Y016106D03*
X011604Y016696D03*
X012391Y016081D03*
X013767Y017884D03*
X013303Y018403D03*
X014252Y018375D03*
X015739Y018239D03*
X016487Y018133D03*
X016987Y018133D03*
X016887Y017533D03*
X018087Y018033D03*
X018887Y018133D03*
X020387Y019033D03*
X020687Y018033D03*
X019187Y016633D03*
X018287Y016633D03*
X018187Y015333D03*
X020887Y014133D03*
X021287Y014033D03*
X021587Y014333D03*
X022387Y015133D03*
X022087Y015395D03*
X022787Y015233D03*
X023487Y016133D03*
X023887Y016833D03*
X022983Y017233D03*
X022787Y016833D03*
X024987Y017033D03*
X025987Y016933D03*
X026387Y016933D03*
X026687Y016533D03*
X026987Y016233D03*
X027287Y016733D03*
X027564Y017374D03*
X026487Y018633D03*
X025787Y019833D03*
X028424Y021152D03*
X030190Y018742D03*
X030672Y016584D03*
X030283Y014733D03*
X029890Y013433D03*
X026887Y013333D03*
X025987Y012333D03*
X025487Y012333D03*
X024887Y013133D03*
X023887Y014633D03*
X024187Y014933D03*
X024987Y015333D03*
X025387Y015733D03*
X025787Y015233D03*
X023087Y014033D03*
X021987Y012833D03*
X021687Y012533D03*
X021387Y012233D03*
X022987Y011933D03*
X021987Y010533D03*
X025187Y008733D03*
X026887Y007233D03*
X028190Y006839D03*
X027674Y009126D03*
X029371Y009914D03*
X026387Y010833D03*
X033765Y004481D03*
X036520Y007237D03*
X036520Y020229D03*
X033765Y022985D03*
X018187Y021233D03*
X016687Y022033D03*
X015987Y022033D03*
X015487Y020133D03*
X015171Y015589D03*
X010087Y010933D03*
X011787Y010133D03*
X012687Y010633D03*
X013390Y010633D03*
X014042Y010633D03*
X015087Y008533D03*
X017087Y009733D03*
X009496Y007783D03*
X005812Y007237D03*
X007543Y012337D03*
X007668Y013462D03*
X009418Y012587D03*
X005812Y020229D03*
X008568Y022985D03*
D14*
X009487Y017433D02*
X007346Y017433D01*
X006206Y016292D01*
X006206Y011174D01*
X008765Y008615D01*
X009355Y008615D01*
D15*
X014418Y005933D02*
X016116Y007630D01*
X021284Y007630D01*
X025987Y012333D01*
X025987Y013233D01*
X027593Y014839D01*
X027593Y017345D01*
X027564Y017374D01*
X029083Y014533D02*
X029083Y021260D01*
X028343Y022000D01*
D16*
X029083Y014533D03*
X009487Y017433D03*
X009355Y008615D03*
D17*
X015124Y011870D02*
X015187Y011933D01*
X020287Y011933D01*
X021187Y012833D01*
X021987Y012833D01*
X021687Y012533D02*
X021287Y012533D01*
X020487Y011733D01*
X016387Y011733D01*
X016124Y011470D01*
X015524Y011470D01*
X015787Y010833D02*
X016487Y011533D01*
X020687Y011533D01*
X021387Y012233D01*
X022387Y011333D02*
X022987Y011933D01*
X022387Y011333D02*
X016687Y011333D01*
X016187Y010833D01*
X017087Y010933D02*
X017887Y010133D01*
X022687Y010133D01*
X025387Y012833D01*
X025387Y014833D01*
X025787Y015233D01*
X024987Y015333D02*
X024487Y014833D01*
X024487Y012633D01*
X022787Y010933D01*
X018887Y010933D01*
X018587Y010633D01*
X018124Y010633D01*
X018024Y010733D01*
X018387Y010933D02*
X018587Y011133D01*
X022587Y011133D01*
X024187Y012733D01*
X024187Y014933D01*
X023887Y014633D02*
X022620Y015900D01*
X021453Y015900D01*
X018587Y013033D01*
X018587Y012633D01*
X018987Y012533D02*
X018987Y013133D01*
X021566Y015712D01*
X022307Y015712D01*
X022787Y015233D01*
X022387Y015133D02*
X021587Y014333D01*
X021287Y014033D02*
X023087Y014033D01*
X022087Y015395D02*
X020887Y014133D01*
X020868Y014133D01*
X018187Y014133D02*
X022187Y018133D01*
X025587Y018133D01*
X026687Y017033D01*
X026687Y016533D01*
X026987Y016233D02*
X026987Y017033D01*
X025687Y018333D01*
X022087Y018333D01*
X018087Y014333D01*
X017687Y014333D01*
X017287Y013933D01*
X017287Y012933D01*
X017049Y012695D01*
X016674Y012695D01*
X016337Y012837D02*
X017087Y013587D01*
X017087Y014033D01*
X017587Y014533D01*
X017987Y014533D01*
X021987Y018533D01*
X025787Y018533D01*
X027287Y017033D01*
X027287Y016733D01*
X026387Y016933D02*
X025387Y017933D01*
X022287Y017933D01*
X018187Y013833D01*
X017887Y013833D01*
X017787Y014133D02*
X017487Y013833D01*
X017487Y012633D01*
X017124Y012333D01*
X016337Y012270D02*
X016337Y012837D01*
X017987Y013033D02*
X017987Y012433D01*
X018187Y012233D01*
X018287Y012933D02*
X018287Y013033D01*
X022487Y017233D01*
X022983Y017233D01*
X023187Y017533D02*
X023887Y016833D01*
X023187Y017533D02*
X022487Y017533D01*
X017987Y013033D01*
X018087Y013533D02*
X018187Y013533D01*
X022387Y017733D01*
X025187Y017733D01*
X025987Y016933D01*
X018187Y014133D02*
X017787Y014133D01*
X016987Y018133D02*
X015887Y019233D01*
X015076Y019233D01*
X012308Y022000D01*
X011308Y022000D02*
X014276Y019033D01*
X015587Y019033D01*
X016487Y018133D01*
D18*
X017887Y013833D03*
X018087Y013533D03*
X018287Y012933D03*
X018587Y012633D03*
X018987Y012533D03*
X018187Y012233D03*
X024887Y014233D03*
D19*
X025891Y003300D03*
X029828Y003300D03*
X021954Y003300D03*
X018017Y003300D03*
X014080Y003300D03*
M02*
