%
M48
M72
T01C0.0150
T02C0.0197
T03C0.0200
T04C0.0300
T05C0.0354
T06C0.0400
T07C0.1260
%
T01
X17887Y13833
X18087Y13533
X18287Y12933
X18587Y12633
X18987Y12533
X18187Y12233
X24887Y14233
T02
X25891Y3300
X29828Y3300
X21954Y3300
X18017Y3300
X14080Y3300
T03
X15524Y5533
X14418Y5933
X12449Y7389
X11858Y6799
X11268Y7586
X10480Y6996
X9496Y7783
X11787Y10133
X12687Y10633
X13390Y10633
X14042Y10633
X15287Y11033
X15787Y10833
X16187Y10833
X17087Y10933
X17587Y10933
X18024Y10733
X18387Y10933
X19387Y10633
X19387Y9733
X19387Y8233
X19028Y6433
X20302Y6517
X17024Y6039
X15087Y8533
X17087Y9733
X15524Y11470
X15124Y11870
X15787Y12608
X16337Y12270
X16674Y12695
X17124Y12333
X16687Y13733
X16287Y14133
X15787Y14433
X15787Y13433
X13696Y14573
X13043Y13462
X11168Y13462
X10424Y14524
X9463Y15589
X9981Y16074
X11136Y16106
X11604Y16696
X12391Y16081
X13767Y17884
X13303Y18403
X14252Y18375
X15739Y18239
X16487Y18133
X16987Y18133
X16887Y17533
X18087Y18033
X18887Y18133
X20387Y19033
X20687Y18033
X19187Y16633
X18287Y16633
X18187Y15333
X20887Y14133
X21287Y14033
X21587Y14333
X22387Y15133
X22087Y15395
X22787Y15233
X23487Y16133
X23887Y16833
X22983Y17233
X22787Y16833
X24987Y17033
X25987Y16933
X26387Y16933
X26687Y16533
X26987Y16233
X27287Y16733
X27564Y17374
X26487Y18633
X25787Y19833
X28424Y21152
X30190Y18742
X30672Y16584
X30283Y14733
X29890Y13433
X26887Y13333
X25987Y12333
X25487Y12333
X24887Y13133
X23887Y14633
X24187Y14933
X24987Y15333
X25387Y15733
X25787Y15233
X23087Y14033
X21987Y12833
X21687Y12533
X21387Y12233
X22987Y11933
X21987Y10533
X25187Y8733
X26887Y7233
X28190Y6839
X27674Y9126
X29371Y9914
X26387Y10833
X33765Y4481
X36520Y7237
X36520Y20229
X33765Y22985
X18187Y21233
X16687Y22033
X15987Y22033
X15487Y20133
X15171Y15589
X10087Y10933
X9418Y12587
X7543Y12337
X7668Y13462
X5812Y7237
X8568Y4481
X9355Y4874
X10536Y4874
X5812Y20229
X8568Y22985
T04
X9487Y17433
X9355Y8615
X29083Y14533
T05
X7485Y14599
X7485Y12867
T06
X10308Y22000
X11308Y22000
X12308Y22000
X13308Y22000
X14308Y22000
X20438Y22000
X21438Y22000
X22438Y22000
X23438Y22000
X24438Y22000
X25438Y22000
X28343Y22000
X29343Y22000
X33855Y18233
X34855Y18233
X34855Y17233
X33855Y17233
X33855Y16233
X34855Y16233
X34855Y15233
X33855Y15233
X33855Y14233
X34855Y14233
X34855Y13233
X33855Y13233
X33855Y12233
X34855Y12233
X34855Y11233
X33855Y11233
X33855Y10233
X34855Y10233
X34855Y9233
X33855Y9233
X29497Y5465
X28497Y5465
X27497Y5465
X26497Y5465
X25497Y5465
X24497Y5465
X23497Y5465
X22497Y5465
X21497Y5465
T07
X6993Y5662
X6993Y21804
X21166Y30859
X35339Y21804
X35339Y5662
M30
