G75*
%MOIN*%
%OFA0B0*%
%FSLAX24Y24*%
%IPPOS*%
%LPD*%
%AMOC8*
5,1,8,0,0,1.08239X$1,22.5*
%
%ADD10C,0.0000*%
D10*
X005418Y005662D02*
X005418Y021804D01*
X006363Y021804D02*
X006365Y021854D01*
X006371Y021904D01*
X006381Y021953D01*
X006395Y022001D01*
X006412Y022048D01*
X006433Y022093D01*
X006458Y022137D01*
X006486Y022178D01*
X006518Y022217D01*
X006552Y022254D01*
X006589Y022288D01*
X006629Y022318D01*
X006671Y022345D01*
X006715Y022369D01*
X006761Y022390D01*
X006808Y022406D01*
X006856Y022419D01*
X006906Y022428D01*
X006955Y022433D01*
X007006Y022434D01*
X007056Y022431D01*
X007105Y022424D01*
X007154Y022413D01*
X007202Y022398D01*
X007248Y022380D01*
X007293Y022358D01*
X007336Y022332D01*
X007377Y022303D01*
X007416Y022271D01*
X007452Y022236D01*
X007484Y022198D01*
X007514Y022158D01*
X007541Y022115D01*
X007564Y022071D01*
X007583Y022025D01*
X007599Y021977D01*
X007611Y021928D01*
X007619Y021879D01*
X007623Y021829D01*
X007623Y021779D01*
X007619Y021729D01*
X007611Y021680D01*
X007599Y021631D01*
X007583Y021583D01*
X007564Y021537D01*
X007541Y021493D01*
X007514Y021450D01*
X007484Y021410D01*
X007452Y021372D01*
X007416Y021337D01*
X007377Y021305D01*
X007336Y021276D01*
X007293Y021250D01*
X007248Y021228D01*
X007202Y021210D01*
X007154Y021195D01*
X007105Y021184D01*
X007056Y021177D01*
X007006Y021174D01*
X006955Y021175D01*
X006906Y021180D01*
X006856Y021189D01*
X006808Y021202D01*
X006761Y021218D01*
X006715Y021239D01*
X006671Y021263D01*
X006629Y021290D01*
X006589Y021320D01*
X006552Y021354D01*
X006518Y021391D01*
X006486Y021430D01*
X006458Y021471D01*
X006433Y021515D01*
X006412Y021560D01*
X006395Y021607D01*
X006381Y021655D01*
X006371Y021704D01*
X006365Y021754D01*
X006363Y021804D01*
X005418Y021804D02*
X005420Y021881D01*
X005426Y021958D01*
X005435Y022035D01*
X005448Y022111D01*
X005465Y022187D01*
X005486Y022261D01*
X005510Y022335D01*
X005538Y022407D01*
X005569Y022477D01*
X005604Y022546D01*
X005642Y022614D01*
X005683Y022679D01*
X005728Y022742D01*
X005776Y022803D01*
X005826Y022862D01*
X005879Y022918D01*
X005935Y022971D01*
X005994Y023021D01*
X006055Y023069D01*
X006118Y023114D01*
X006183Y023155D01*
X006251Y023193D01*
X006320Y023228D01*
X006390Y023259D01*
X006462Y023287D01*
X006536Y023311D01*
X006610Y023332D01*
X006686Y023349D01*
X006762Y023362D01*
X006839Y023371D01*
X006916Y023377D01*
X006993Y023379D01*
X006993Y023378D02*
X010339Y023378D01*
X010339Y025150D01*
X007827Y025150D01*
X007786Y025152D01*
X007746Y025157D01*
X007707Y025167D01*
X007668Y025180D01*
X007631Y025196D01*
X007595Y025216D01*
X007562Y025239D01*
X007531Y025265D01*
X007502Y025294D01*
X007476Y025325D01*
X007453Y025358D01*
X007433Y025394D01*
X007417Y025431D01*
X007404Y025470D01*
X007394Y025509D01*
X007389Y025549D01*
X007387Y025590D01*
X007387Y026134D01*
X009659Y032952D01*
X009673Y032987D01*
X009690Y033021D01*
X009710Y033053D01*
X009733Y033083D01*
X009759Y033110D01*
X009788Y033135D01*
X009818Y033157D01*
X009851Y033176D01*
X009885Y033192D01*
X009921Y033205D01*
X009958Y033214D01*
X009995Y033219D01*
X010033Y033221D01*
X011641Y033221D01*
X011668Y033219D01*
X011694Y033214D01*
X011719Y033205D01*
X011742Y033193D01*
X011764Y033178D01*
X011784Y033160D01*
X011801Y033139D01*
X011815Y033117D01*
X011826Y033092D01*
X011833Y033067D01*
X011837Y033040D01*
X011838Y033014D01*
X011835Y032987D01*
X011828Y032962D01*
X010733Y029678D01*
X012226Y029678D01*
X012226Y029677D02*
X012257Y029675D01*
X012288Y029670D01*
X012318Y029661D01*
X012347Y029649D01*
X012374Y029634D01*
X012399Y029616D01*
X012423Y029596D01*
X012443Y029572D01*
X012461Y029547D01*
X012476Y029520D01*
X012488Y029491D01*
X012497Y029461D01*
X012502Y029430D01*
X012504Y029399D01*
X012505Y029399D02*
X012505Y027315D01*
X013095Y027315D01*
X015000Y033031D01*
X015000Y033030D02*
X015012Y033059D01*
X015027Y033087D01*
X015045Y033113D01*
X015066Y033137D01*
X015089Y033158D01*
X015115Y033176D01*
X015142Y033192D01*
X015171Y033204D01*
X015201Y033213D01*
X015233Y033218D01*
X015264Y033220D01*
X015264Y033221D02*
X016843Y033221D01*
X016843Y033220D02*
X016876Y033218D01*
X016908Y033212D01*
X016940Y033203D01*
X016970Y033189D01*
X016998Y033173D01*
X017024Y033153D01*
X017048Y033130D01*
X017069Y033105D01*
X017086Y033077D01*
X017100Y033047D01*
X017111Y033016D01*
X017118Y032984D01*
X017121Y032951D01*
X017120Y032918D01*
X017115Y032886D01*
X017107Y032854D01*
X016048Y029678D01*
X017623Y029678D01*
X017649Y029676D01*
X017674Y029671D01*
X017698Y029663D01*
X017722Y029652D01*
X017743Y029637D01*
X017762Y029620D01*
X017779Y029601D01*
X017794Y029580D01*
X017805Y029556D01*
X017813Y029532D01*
X017818Y029507D01*
X017820Y029481D01*
X017820Y027315D01*
X018410Y027315D01*
X018410Y032341D01*
X018405Y032394D01*
X018404Y032448D01*
X018406Y032502D01*
X018413Y032555D01*
X018422Y032608D01*
X018436Y032660D01*
X018453Y032711D01*
X018473Y032761D01*
X018497Y032809D01*
X018523Y032856D01*
X018553Y032901D01*
X018586Y032943D01*
X018622Y032983D01*
X018661Y033021D01*
X018702Y033056D01*
X018745Y033088D01*
X018790Y033117D01*
X018837Y033143D01*
X018886Y033165D01*
X018937Y033184D01*
X018988Y033200D01*
X019040Y033212D01*
X019094Y033221D01*
X031101Y033221D01*
X031142Y033219D01*
X031182Y033214D01*
X031221Y033204D01*
X031260Y033191D01*
X031297Y033175D01*
X031332Y033155D01*
X031366Y033132D01*
X031397Y033106D01*
X031426Y033078D01*
X031452Y033047D01*
X031475Y033013D01*
X031495Y032978D01*
X031511Y032940D01*
X032780Y029678D01*
X032780Y032664D01*
X032782Y032710D01*
X032788Y032756D01*
X032797Y032801D01*
X032810Y032845D01*
X032827Y032888D01*
X032847Y032929D01*
X032871Y032969D01*
X032897Y033006D01*
X032927Y033041D01*
X032960Y033074D01*
X032995Y033104D01*
X033032Y033130D01*
X033072Y033154D01*
X033113Y033174D01*
X033156Y033191D01*
X033200Y033204D01*
X033245Y033213D01*
X033291Y033219D01*
X033337Y033221D01*
X034505Y033221D01*
X034546Y033219D01*
X034586Y033214D01*
X034625Y033204D01*
X034664Y033191D01*
X034701Y033175D01*
X034737Y033155D01*
X034770Y033132D01*
X034801Y033106D01*
X034830Y033077D01*
X034856Y033046D01*
X034879Y033013D01*
X034899Y032977D01*
X034915Y032940D01*
X034928Y032901D01*
X034938Y032862D01*
X034943Y032822D01*
X034945Y032781D01*
X034946Y032781D02*
X034946Y023378D01*
X035339Y023378D01*
X034709Y021804D02*
X034711Y021854D01*
X034717Y021904D01*
X034727Y021953D01*
X034741Y022001D01*
X034758Y022048D01*
X034779Y022093D01*
X034804Y022137D01*
X034832Y022178D01*
X034864Y022217D01*
X034898Y022254D01*
X034935Y022288D01*
X034975Y022318D01*
X035017Y022345D01*
X035061Y022369D01*
X035107Y022390D01*
X035154Y022406D01*
X035202Y022419D01*
X035252Y022428D01*
X035301Y022433D01*
X035352Y022434D01*
X035402Y022431D01*
X035451Y022424D01*
X035500Y022413D01*
X035548Y022398D01*
X035594Y022380D01*
X035639Y022358D01*
X035682Y022332D01*
X035723Y022303D01*
X035762Y022271D01*
X035798Y022236D01*
X035830Y022198D01*
X035860Y022158D01*
X035887Y022115D01*
X035910Y022071D01*
X035929Y022025D01*
X035945Y021977D01*
X035957Y021928D01*
X035965Y021879D01*
X035969Y021829D01*
X035969Y021779D01*
X035965Y021729D01*
X035957Y021680D01*
X035945Y021631D01*
X035929Y021583D01*
X035910Y021537D01*
X035887Y021493D01*
X035860Y021450D01*
X035830Y021410D01*
X035798Y021372D01*
X035762Y021337D01*
X035723Y021305D01*
X035682Y021276D01*
X035639Y021250D01*
X035594Y021228D01*
X035548Y021210D01*
X035500Y021195D01*
X035451Y021184D01*
X035402Y021177D01*
X035352Y021174D01*
X035301Y021175D01*
X035252Y021180D01*
X035202Y021189D01*
X035154Y021202D01*
X035107Y021218D01*
X035061Y021239D01*
X035017Y021263D01*
X034975Y021290D01*
X034935Y021320D01*
X034898Y021354D01*
X034864Y021391D01*
X034832Y021430D01*
X034804Y021471D01*
X034779Y021515D01*
X034758Y021560D01*
X034741Y021607D01*
X034727Y021655D01*
X034717Y021704D01*
X034711Y021754D01*
X034709Y021804D01*
X035339Y023379D02*
X035416Y023377D01*
X035493Y023371D01*
X035570Y023362D01*
X035646Y023349D01*
X035722Y023332D01*
X035796Y023311D01*
X035870Y023287D01*
X035942Y023259D01*
X036012Y023228D01*
X036081Y023193D01*
X036149Y023155D01*
X036214Y023114D01*
X036277Y023069D01*
X036338Y023021D01*
X036397Y022971D01*
X036453Y022918D01*
X036506Y022862D01*
X036556Y022803D01*
X036604Y022742D01*
X036649Y022679D01*
X036690Y022614D01*
X036728Y022546D01*
X036763Y022477D01*
X036794Y022407D01*
X036822Y022335D01*
X036846Y022261D01*
X036867Y022187D01*
X036884Y022111D01*
X036897Y022035D01*
X036906Y021958D01*
X036912Y021881D01*
X036914Y021804D01*
X036914Y005662D01*
X034709Y005662D02*
X034711Y005712D01*
X034717Y005762D01*
X034727Y005811D01*
X034741Y005859D01*
X034758Y005906D01*
X034779Y005951D01*
X034804Y005995D01*
X034832Y006036D01*
X034864Y006075D01*
X034898Y006112D01*
X034935Y006146D01*
X034975Y006176D01*
X035017Y006203D01*
X035061Y006227D01*
X035107Y006248D01*
X035154Y006264D01*
X035202Y006277D01*
X035252Y006286D01*
X035301Y006291D01*
X035352Y006292D01*
X035402Y006289D01*
X035451Y006282D01*
X035500Y006271D01*
X035548Y006256D01*
X035594Y006238D01*
X035639Y006216D01*
X035682Y006190D01*
X035723Y006161D01*
X035762Y006129D01*
X035798Y006094D01*
X035830Y006056D01*
X035860Y006016D01*
X035887Y005973D01*
X035910Y005929D01*
X035929Y005883D01*
X035945Y005835D01*
X035957Y005786D01*
X035965Y005737D01*
X035969Y005687D01*
X035969Y005637D01*
X035965Y005587D01*
X035957Y005538D01*
X035945Y005489D01*
X035929Y005441D01*
X035910Y005395D01*
X035887Y005351D01*
X035860Y005308D01*
X035830Y005268D01*
X035798Y005230D01*
X035762Y005195D01*
X035723Y005163D01*
X035682Y005134D01*
X035639Y005108D01*
X035594Y005086D01*
X035548Y005068D01*
X035500Y005053D01*
X035451Y005042D01*
X035402Y005035D01*
X035352Y005032D01*
X035301Y005033D01*
X035252Y005038D01*
X035202Y005047D01*
X035154Y005060D01*
X035107Y005076D01*
X035061Y005097D01*
X035017Y005121D01*
X034975Y005148D01*
X034935Y005178D01*
X034898Y005212D01*
X034864Y005249D01*
X034832Y005288D01*
X034804Y005329D01*
X034779Y005373D01*
X034758Y005418D01*
X034741Y005465D01*
X034727Y005513D01*
X034717Y005562D01*
X034711Y005612D01*
X034709Y005662D01*
X035339Y004087D02*
X035416Y004089D01*
X035493Y004095D01*
X035570Y004104D01*
X035646Y004117D01*
X035722Y004134D01*
X035796Y004155D01*
X035870Y004179D01*
X035942Y004207D01*
X036012Y004238D01*
X036081Y004273D01*
X036149Y004311D01*
X036214Y004352D01*
X036277Y004397D01*
X036338Y004445D01*
X036397Y004495D01*
X036453Y004548D01*
X036506Y004604D01*
X036556Y004663D01*
X036604Y004724D01*
X036649Y004787D01*
X036690Y004852D01*
X036728Y004920D01*
X036763Y004989D01*
X036794Y005059D01*
X036822Y005131D01*
X036846Y005205D01*
X036867Y005279D01*
X036884Y005355D01*
X036897Y005431D01*
X036906Y005508D01*
X036912Y005585D01*
X036914Y005662D01*
X035339Y004087D02*
X031009Y004087D01*
X031007Y003963D01*
X031001Y003840D01*
X030992Y003716D01*
X030978Y003594D01*
X030961Y003471D01*
X030939Y003349D01*
X030914Y003228D01*
X030885Y003108D01*
X030853Y002989D01*
X030816Y002870D01*
X030776Y002753D01*
X030733Y002638D01*
X030685Y002523D01*
X030634Y002411D01*
X030580Y002300D01*
X030522Y002190D01*
X030461Y002083D01*
X030396Y001977D01*
X030328Y001874D01*
X030257Y001773D01*
X030183Y001674D01*
X030106Y001577D01*
X030025Y001483D01*
X029942Y001392D01*
X029856Y001303D01*
X029767Y001217D01*
X029676Y001134D01*
X029582Y001053D01*
X029485Y000976D01*
X029386Y000902D01*
X029285Y000831D01*
X029182Y000763D01*
X029076Y000698D01*
X028969Y000637D01*
X028859Y000579D01*
X028748Y000525D01*
X028636Y000474D01*
X028521Y000426D01*
X028406Y000383D01*
X028289Y000343D01*
X028170Y000306D01*
X028051Y000274D01*
X027931Y000245D01*
X027810Y000220D01*
X027688Y000198D01*
X027565Y000181D01*
X027443Y000167D01*
X027319Y000158D01*
X027196Y000152D01*
X027072Y000150D01*
X015261Y000150D01*
X015137Y000152D01*
X015014Y000158D01*
X014890Y000167D01*
X014768Y000181D01*
X014645Y000198D01*
X014523Y000220D01*
X014402Y000245D01*
X014282Y000274D01*
X014163Y000306D01*
X014044Y000343D01*
X013927Y000383D01*
X013812Y000426D01*
X013697Y000474D01*
X013585Y000525D01*
X013474Y000579D01*
X013364Y000637D01*
X013257Y000698D01*
X013151Y000763D01*
X013048Y000831D01*
X012947Y000902D01*
X012848Y000976D01*
X012751Y001053D01*
X012657Y001134D01*
X012566Y001217D01*
X012477Y001303D01*
X012391Y001392D01*
X012308Y001483D01*
X012227Y001577D01*
X012150Y001674D01*
X012076Y001773D01*
X012005Y001874D01*
X011937Y001977D01*
X011872Y002083D01*
X011811Y002190D01*
X011753Y002300D01*
X011699Y002411D01*
X011648Y002523D01*
X011600Y002638D01*
X011557Y002753D01*
X011517Y002870D01*
X011480Y002989D01*
X011448Y003108D01*
X011419Y003228D01*
X011394Y003349D01*
X011372Y003471D01*
X011355Y003594D01*
X011341Y003716D01*
X011332Y003840D01*
X011326Y003963D01*
X011324Y004087D01*
X006993Y004087D01*
X006363Y005662D02*
X006365Y005712D01*
X006371Y005762D01*
X006381Y005811D01*
X006395Y005859D01*
X006412Y005906D01*
X006433Y005951D01*
X006458Y005995D01*
X006486Y006036D01*
X006518Y006075D01*
X006552Y006112D01*
X006589Y006146D01*
X006629Y006176D01*
X006671Y006203D01*
X006715Y006227D01*
X006761Y006248D01*
X006808Y006264D01*
X006856Y006277D01*
X006906Y006286D01*
X006955Y006291D01*
X007006Y006292D01*
X007056Y006289D01*
X007105Y006282D01*
X007154Y006271D01*
X007202Y006256D01*
X007248Y006238D01*
X007293Y006216D01*
X007336Y006190D01*
X007377Y006161D01*
X007416Y006129D01*
X007452Y006094D01*
X007484Y006056D01*
X007514Y006016D01*
X007541Y005973D01*
X007564Y005929D01*
X007583Y005883D01*
X007599Y005835D01*
X007611Y005786D01*
X007619Y005737D01*
X007623Y005687D01*
X007623Y005637D01*
X007619Y005587D01*
X007611Y005538D01*
X007599Y005489D01*
X007583Y005441D01*
X007564Y005395D01*
X007541Y005351D01*
X007514Y005308D01*
X007484Y005268D01*
X007452Y005230D01*
X007416Y005195D01*
X007377Y005163D01*
X007336Y005134D01*
X007293Y005108D01*
X007248Y005086D01*
X007202Y005068D01*
X007154Y005053D01*
X007105Y005042D01*
X007056Y005035D01*
X007006Y005032D01*
X006955Y005033D01*
X006906Y005038D01*
X006856Y005047D01*
X006808Y005060D01*
X006761Y005076D01*
X006715Y005097D01*
X006671Y005121D01*
X006629Y005148D01*
X006589Y005178D01*
X006552Y005212D01*
X006518Y005249D01*
X006486Y005288D01*
X006458Y005329D01*
X006433Y005373D01*
X006412Y005418D01*
X006395Y005465D01*
X006381Y005513D01*
X006371Y005562D01*
X006365Y005612D01*
X006363Y005662D01*
X005418Y005662D02*
X005420Y005585D01*
X005426Y005508D01*
X005435Y005431D01*
X005448Y005355D01*
X005465Y005279D01*
X005486Y005205D01*
X005510Y005131D01*
X005538Y005059D01*
X005569Y004989D01*
X005604Y004920D01*
X005642Y004852D01*
X005683Y004787D01*
X005728Y004724D01*
X005776Y004663D01*
X005826Y004604D01*
X005879Y004548D01*
X005935Y004495D01*
X005994Y004445D01*
X006055Y004397D01*
X006118Y004352D01*
X006183Y004311D01*
X006251Y004273D01*
X006320Y004238D01*
X006390Y004207D01*
X006462Y004179D01*
X006536Y004155D01*
X006610Y004134D01*
X006686Y004117D01*
X006762Y004104D01*
X006839Y004095D01*
X006916Y004089D01*
X006993Y004087D01*
X007308Y012867D02*
X007310Y012893D01*
X007316Y012919D01*
X007326Y012944D01*
X007339Y012967D01*
X007355Y012987D01*
X007375Y013005D01*
X007397Y013020D01*
X007420Y013032D01*
X007446Y013040D01*
X007472Y013044D01*
X007498Y013044D01*
X007524Y013040D01*
X007550Y013032D01*
X007574Y013020D01*
X007595Y013005D01*
X007615Y012987D01*
X007631Y012967D01*
X007644Y012944D01*
X007654Y012919D01*
X007660Y012893D01*
X007662Y012867D01*
X007660Y012841D01*
X007654Y012815D01*
X007644Y012790D01*
X007631Y012767D01*
X007615Y012747D01*
X007595Y012729D01*
X007573Y012714D01*
X007550Y012702D01*
X007524Y012694D01*
X007498Y012690D01*
X007472Y012690D01*
X007446Y012694D01*
X007420Y012702D01*
X007396Y012714D01*
X007375Y012729D01*
X007355Y012747D01*
X007339Y012767D01*
X007326Y012790D01*
X007316Y012815D01*
X007310Y012841D01*
X007308Y012867D01*
X007308Y014599D02*
X007310Y014625D01*
X007316Y014651D01*
X007326Y014676D01*
X007339Y014699D01*
X007355Y014719D01*
X007375Y014737D01*
X007397Y014752D01*
X007420Y014764D01*
X007446Y014772D01*
X007472Y014776D01*
X007498Y014776D01*
X007524Y014772D01*
X007550Y014764D01*
X007574Y014752D01*
X007595Y014737D01*
X007615Y014719D01*
X007631Y014699D01*
X007644Y014676D01*
X007654Y014651D01*
X007660Y014625D01*
X007662Y014599D01*
X007660Y014573D01*
X007654Y014547D01*
X007644Y014522D01*
X007631Y014499D01*
X007615Y014479D01*
X007595Y014461D01*
X007573Y014446D01*
X007550Y014434D01*
X007524Y014426D01*
X007498Y014422D01*
X007472Y014422D01*
X007446Y014426D01*
X007420Y014434D01*
X007396Y014446D01*
X007375Y014461D01*
X007355Y014479D01*
X007339Y014499D01*
X007326Y014522D01*
X007316Y014547D01*
X007310Y014573D01*
X007308Y014599D01*
X020536Y030859D02*
X020538Y030909D01*
X020544Y030959D01*
X020554Y031008D01*
X020568Y031056D01*
X020585Y031103D01*
X020606Y031148D01*
X020631Y031192D01*
X020659Y031233D01*
X020691Y031272D01*
X020725Y031309D01*
X020762Y031343D01*
X020802Y031373D01*
X020844Y031400D01*
X020888Y031424D01*
X020934Y031445D01*
X020981Y031461D01*
X021029Y031474D01*
X021079Y031483D01*
X021128Y031488D01*
X021179Y031489D01*
X021229Y031486D01*
X021278Y031479D01*
X021327Y031468D01*
X021375Y031453D01*
X021421Y031435D01*
X021466Y031413D01*
X021509Y031387D01*
X021550Y031358D01*
X021589Y031326D01*
X021625Y031291D01*
X021657Y031253D01*
X021687Y031213D01*
X021714Y031170D01*
X021737Y031126D01*
X021756Y031080D01*
X021772Y031032D01*
X021784Y030983D01*
X021792Y030934D01*
X021796Y030884D01*
X021796Y030834D01*
X021792Y030784D01*
X021784Y030735D01*
X021772Y030686D01*
X021756Y030638D01*
X021737Y030592D01*
X021714Y030548D01*
X021687Y030505D01*
X021657Y030465D01*
X021625Y030427D01*
X021589Y030392D01*
X021550Y030360D01*
X021509Y030331D01*
X021466Y030305D01*
X021421Y030283D01*
X021375Y030265D01*
X021327Y030250D01*
X021278Y030239D01*
X021229Y030232D01*
X021179Y030229D01*
X021128Y030230D01*
X021079Y030235D01*
X021029Y030244D01*
X020981Y030257D01*
X020934Y030273D01*
X020888Y030294D01*
X020844Y030318D01*
X020802Y030345D01*
X020762Y030375D01*
X020725Y030409D01*
X020691Y030446D01*
X020659Y030485D01*
X020631Y030526D01*
X020606Y030570D01*
X020585Y030615D01*
X020568Y030662D01*
X020554Y030710D01*
X020544Y030759D01*
X020538Y030809D01*
X020536Y030859D01*
M02*
